<svg xmlns="http://www.w3.org/2000/svg" xmlns:xlink="http://www.w3.org/1999/xlink" xmlns:lucid="lucid" width="1760" height="2656"><g transform="translate(0 1296)" lucid:page-tab-id="0_0"><path d="M1154.93-109.8l-22.9 30.67-12.03-30.6 21.9-1.35 13.03 1.27zM1184.82-109.8l23.16 30.85 11.77-30.78-21.66-1.35-13.28 1.28z" fill="#fbbf93"/><path d="M1154.93-130.3l-22.9-30.76-12.03 30.8 22.08 1.3 12.85-1.34zM1184.82-130.28l23.18-30.78 12 30.8-21.92 1.33-13.26-1.35z" fill="#6b3a19"/><path d="M1184.82-130.3l23.16-1.72v-29.04l-23.16 5.96v24.8z" fill="#9d5025"/><path d="M1220-130.26l-12-1.76v-29.04l12 5.97v24.84z" fill="#f58536"/><path d="M1184.82-109.8l23.16 1.8v29.05L1184.82-85v-24.8z" fill="#9d5025"/><path d="M1219.76-109.72L1208-108v29.05l11.76-5.87v-24.9zM1154.93-130.3l-22.93-1.72v-29.04l22.93 5.96v24.8z" fill="#f58536"/><path d="M1120-130.26l12-1.76v-29.04l-12 5.97v24.84z" fill="#9d5025"/><path d="M1154.93-109.8L1132-108v29.05l22.93-6.04v-24.8z" fill="#f58536"/><path d="M1120-109.75l12 1.75v29.05l-12-5.97v-24.83z" fill="#9d5025"/><path d="M1193.86-105.96l-23.9-2.36-24.07 2.3 24.07 46 23.9-45.94z" fill="#fbbf93"/><path d="M1193.86-134.06l-23.9 2.37-24.07-2.3 24.07-46 23.9 45.94z" fill="#6b3a19"/><path d="M1193.86-134.04L1170-137.5V-180l23.86 11.9v34.06z" fill="#f58536"/><path d="M1145.9-134.02l24.1-3.5V-180l-24.1 12v33.98z" fill="#9d5025"/><path d="M1193.86-105.97l-23.86 3.45v42.5l23.86-11.9v-34.05z" fill="#f58536"/><path d="M1145.9-106l24.1 3.5V-60l-24.1-12v-34z" fill="#9d5025"/><use xlink:href="#a" transform="matrix(1,0,0,1,1120,-60) translate(9.29012345679012 17.77777777777778)"/><use xlink:href="#b" transform="matrix(1,0,0,1,1120,-60) translate(-4.814814814814817 44.44444444444444)"/><path d="M637.5-117.64C637.5-85.84 611.74-60 580-60s-57.5-25.83-57.5-57.64c0-31.8 25.76-57.63 57.5-57.63s57.5 25.82 57.5 57.63z" fill="#9d5025"/><path d="M637.5-122.37c0 31.8-25.76 57.63-57.5 57.63s-57.5-25.82-57.5-57.63c0-31.8 25.76-57.63 57.5-57.63s57.5 25.82 57.5 57.63z" fill="#f58536"/><path d="M596.77-168.92V-148H563.2v-20.92h33.57zM622.72-108.36v17.04h-17v-17.04h17zM601.23-108.36v17.04h-17v-17.04h17zM575.05-108.36v17.04h-17v-17.04h17zM553.55-108.36v17.04h-17v-17.04h17z" fill="#fff"/><path d="M543.52-123.1h3.06v16.7h-3.06v-16.7z" fill="#fff"/><path d="M543.52-123.1h24.57v3.05H543.5v-3.06z" fill="#fff"/><path d="M565.03-123.1h3.06v16.7h-3.07v-16.7zM591.2-123.1h3.06v16.7h-3.06v-16.7z" fill="#fff"/><path d="M591.2-123.1h24.56v3.05H591.2v-3.06z" fill="#fff"/><path d="M612.7-123.1h3.06v16.7h-3.05v-16.7zM554.3-135.05h3.06v13.47h-3.06v-13.47zM578.46-151.08h3.06v16.28h-3.06v-16.28z" fill="#fff"/><path d="M554.3-136.33h50.77v3.06H554.3v-3.06z" fill="#fff"/><path d="M602-135.05h3.07v13.47H602v-13.47z" fill="#fff"/><use xlink:href="#c" transform="matrix(1,0,0,1,522.5,-60) translate(3.271604938271601 17.77777777777778)"/><use xlink:href="#d" transform="matrix(1,0,0,1,522.5,-60) translate(32.808641975308646 44.44444444444444)"/><use xlink:href="#e" transform="matrix(1,0,0,1,522.5,-60) translate(13.734567901234563 71.11111111111111)"/><path d="M304.94-955.34h74.12c10.74 0 19.44 8.68 19.44 19.4v32.6c-3.84-2.02-12.2-4.17-24.63-4.17-5.1 0-9.27.33-14.24 1.12-8.36 1.36-12.77 3.72-12.77 5.2v55.4c0 .9 1.24 2.02 3.62 3.26h-45.54c-10.74 0-19.44-8.7-19.44-19.4v-74.02c0-10.72 8.7-19.4 19.44-19.4z" fill="#19486f"/><path d="M304.93-960h74.12c10.74 0 19.44 8.7 19.44 19.4v32.6c-3.85-2.03-12.2-4.17-24.64-4.17-5.1 0-9.27.34-14.24 1.13-8.36 1.35-12.77 3.72-12.77 5.18v55.4c0 .9 1.25 2.02 3.62 3.26h-45.54c-10.73 0-19.43-8.7-19.43-19.4v-74c0-10.7 8.7-19.4 19.43-19.4z" fill="#2e73b8"/><path d="M375.8-897.28c-4.22-.02-7.8.25-11.97.9-3.76.24-6.97-.05-10.64-.94v5.3c0 1.25 3.7 3.25 10.63 4.37 4.17.67 7.75.93 11.96.9 14.72 0 22.7-3.47 22.7-5.26v-5.32zM352.66-881.66v36.36c0 1.87 6.4 5.25 21.58 5.25 6.63.16 12.3-.46 18.75-2.13 3-.96 5.16-2.12 5.4-2.9v-36.17c-4.45 2.75-13.6 4.25-22.7 4.25h-3.75l-2.24-.37h-1.13l-1.78-.13-.97-.17-1.92-.25c-4.16-.54-7.6-1.66-11.24-3.74z" fill="#19486f"/><path d="M375.8-902.58c-4.22-.02-7.8.25-11.97.9-7.02 1.16-10.64 3.16-10.64 4.37 0 1.2 3.7 3.22 10.63 4.35 4.17.66 7.75.93 11.96.9 14.72 0 22.7-3.47 22.7-5.26 0-1.8-7.98-5.28-22.7-5.28zM352.66-887v36.37c0 1.87 6.4 5.25 21.58 5.25 6.63.16 12.3-.46 18.75-2.13 3-.96 5.16-2.13 5.4-2.92v-36.16c-4.45 2.75-13.6 4.25-22.7 4.25h-3.75l-2.24-.37h-1.13l-1.78-.34h-.97l-1.92-.24c-4.16-.5-7.6-1.63-11.24-3.7z" fill="#2e73b8"/><path d="M304.98-847.23h45.44v4.65h-45.44c-10.78 0-19.48-8.7-19.48-19.4v-4.68.02c0 10.72 8.7 19.4 19.48 19.4z" fill="#19486f"/><path d="M302.02-946.67h6.6l3.16 15.55 3.2-15.55h6.57v22.02h-4v-17.57l-3.93 17.57h-3.6l-3.84-17.57v17.57h-4.16zM323.98-922.4c.38.04.7.04 1.1 0 1.58 0 2.13-.87 2.28-2.32l-4.56-16.52h4.27l2.55 11.43 2.12-11.48H336l-4 15.48c-1.48 5.75-2.45 6.54-6.4 6.54h-1.72zM342.95-931.52v.64c0 2.13.6 3.37 2.95 3.37h.34c1.4-.12 2.43-1.34 2.33-2.7 0-2.03-1.03-2.76-3.98-3.8-3.97-1.34-5.8-3-5.8-6.64 0-4.26 2.64-6.4 6.85-6.4 4.2 0 6.82 1.7 6.82 5.92v.67h-4.27c0-2.13-.7-3.28-2.4-3.28-.2-.02-.37-.02-.58 0-1.24.16-2.12 1.3-1.96 2.54 0 1.4.4 2.14 2.27 3l3.43 1.5c3.36 1.45 4.27 3.16 4.27 5.85 0 4.65-2.83 6.73-7.65 6.73s-7.02-2.34-7.02-6.4v-1zM367.36-921.92l-2.62-2.73c-.47.17-.88.27-1.36.35-.55.03-1.02.03-1.6 0-6.65 0-7.5-4.75-7.5-11.45 0-6.7.85-11.45 7.5-11.45 6.7 0 7.52 4.76 7.52 11.45.32 3.24-.23 6.04-1.7 8.92l2.38 2.43zm-5.57-5.56c2.6 0 3.05-2.25 3.05-8.17 0-5.9-.44-8.16-3.06-8.16-2.63 0-3.07 2.26-3.07 8.15 0 5.9.44 8.17 3.06 8.17zM371.27-924.65v-22.02h4.45v18.4h7.9v3.62zM363.3-878.75h6.97l4.95 20.7 5.04-20.7h6.82v28.02h-4.26v-23.23l-5.7 23.23h-3.78l-5.6-23.23v23.23h-4.43z" fill="#fff"/><use xlink:href="#f" transform="matrix(1,0,0,1,285.5,-840) translate(1.4074074074074119 17.77777777777778)"/><use xlink:href="#g" transform="matrix(1,0,0,1,285.5,-840) translate(80.79012345679013 17.77777777777778)"/><use xlink:href="#h" transform="matrix(1,0,0,1,285.5,-840) translate(15.172839506172842 44.44444444444444)"/><path d="M120-1098c0-16.57 13.43-30 30-30h1140c16.57 0 30 13.43 30 30V150c0 16.57-13.43 30-30 30H150c-16.57 0-30-13.43-30-30z" stroke="#474747" fill="none"/><path d="M228-1125.6v3.54c0 6.42-7.1 13.05-15.76 13.05h-46.48c-8.66 0-15.75-6.64-15.75-13.06v-3.54z" fill="#9d5125"/><path d="M180.03-1160c8.03 0 14.82 4.4 18.17 11.67 4.6-3.14 10.92-1.98 14.04 2.65 1.17 1.64 1.7 3.32 1.8 5.3 7.87.68 13.95 8.25 13.95 14.27v1.3c0 6.45-7.1 13-15.76 13h-46.5c-8.64 0-15.74-6.55-15.74-13v-1.3c0-5.02 4.2-11.87 10.06-13.56v-.57c.08-10.95 8.97-19.82 19.97-19.77z" fill="#f58535"/><path d="M169.54-1136.87l-5.2 18.2h3.04l1.17-4.43h5.38l1.1 4.43h3.05l-4.8-18.2zm-.47 11.4l2.22-8.98 2.1 8.97zM191.2-1122.66h-.03l-2.47-14.2h-3.1l-2.4 14.13h-.06l-2.4-14.14h-2.95l3.53 18.2h3.38l2.35-13.7h.06l2.36 13.7h3.4l3.64-18.2h-2.9l-2.4 14.2zM205.9-1128.6l-1.98-.72c-1.93-.7-2.74-1.53-2.74-3.1-.17-1.26.74-2.43 2-2.6.16-.02.3-.02.45-.02 1.26-.17 2.4.72 2.58 1.96.04.25.03.44 0 .68v.38h2.93v-.4c0-1.9-.5-4.8-5.18-4.8-3.44 0-5.7 1.84-5.7 5.16 0 2.6 1.1 3.97 3.82 5l2 .68c1.6.23 2.73 1.6 2.64 3.2.04 1.45-1.08 2.64-2.5 2.68h-.28c-2 0-3-1.12-3-3.33v-.47h-2.9v.44c0 2.54 1.02 5.53 5.52 5.53 3.7 0 6.07-1.6 6.07-5.48.04-2.5-1.1-3.9-3.7-4.8z" fill="#fff"/><use xlink:href="#i" transform="matrix(1,0,0,1,120,150) translate(545.5246913580247 11.11111111111111)"/><use xlink:href="#j" transform="matrix(1,0,0,1,120,150) translate(601.4506172839506 11.11111111111111)"/><path d="M160-1038c0-16.57 13.43-30 30-30h820c16.57 0 30 13.43 30 30V110c0 16.57-13.43 30-30 30H190c-16.57 0-30-13.43-30-30z" stroke="#474747" fill="none"/><path d="M268-1065.6v3.54c0 6.42-7.1 13.05-15.76 13.05h-46.48c-8.66 0-15.75-6.64-15.75-13.06v-3.54z" fill="#9d5125"/><path d="M220.03-1100c8.03 0 14.82 4.4 18.17 11.67 4.6-3.14 10.92-1.98 14.04 2.65 1.17 1.64 1.7 3.32 1.8 5.3 7.87.68 13.95 8.25 13.95 14.27v1.3c0 6.45-7.1 13-15.76 13h-46.5c-8.64 0-15.74-6.55-15.74-13v-1.3c0-5.02 4.2-11.87 10.06-13.56v-.57c.08-10.95 8.97-19.82 19.97-19.77z" fill="#f58535"/><path d="M208.9-1076.87h3.08l3.1 14.58 3.32-14.54h3.1l-4.6 18.2h-3.7zM223.37-1076.87h5.77c3.5 0 5.04 2.2 5.04 5.3 0 3.1-1.9 5.4-5.33 5.4h-2.57v7.53h-2.9zm2.9 8.5h2.08c1.56 0 2.9-.83 2.9-3.14 0-1.98-.78-3.17-3.1-3.17h-1.87zM247.8-1065.17v.38c0 3.32-1.3 6.52-5.6 6.52-4.6 0-6.04-2.97-6.04-9.47s1.43-9.46 6.05-9.46c5.2 0 5.54 3.8 5.54 5.7v.37h-2.9v-.3c0-1.7-.5-3.64-2.6-3.57-2.08.08-3.1 1.35-3.1 7.22 0 5.87.92 7.3 3.14 7.3 2.42 0 2.7-2.7 2.7-4.42v-.3z" fill="#fff"/><use xlink:href="#k" transform="matrix(1,0,0,1,160,110) translate(344.5061728395062 11.11111111111111)"/><use xlink:href="#l" transform="matrix(1,0,0,1,160,110) translate(409.7530864197531 11.11111111111111)"/><use xlink:href="#j" transform="matrix(1,0,0,1,160,110) translate(482.46913580246917 11.11111111111111)"/><path d="M200-498c0-16.57 13.43-30 30-30h700c16.57 0 30 13.43 30 30V50c0 16.57-13.43 30-30 30H230c-16.57 0-30-13.43-30-30z" stroke="#474747" fill="none"/><path d="M233.7-555.16V-521h-4v32.2l13.8 6.8 8.3-39-8.3-39-9.8 4.84z" fill="#9d5025"/><path d="M243.5-560v78l9.77-4.84V-521h4.04v-32.2l-13.8-6.8z" fill="#f58536"/><path d="M272-530.98l-17.48 1.63-5.73-.7 18.18-18.34 5 17.42z" fill="#6b3a19"/><path d="M267-548.4l5 2.5V-531l-5-1v-16.4z" fill="#f58536"/><path d="M248.8-530.06l18.2-1.9v-16.43l-18.2 4.9v13.44z" fill="#9d5025"/><path d="M215-511.03l17.47-1.64 5.73.7-18.2 18.34-5-17.4z" fill="#fbbf93"/><path d="M220-493.63l-5-2.47v-14.94l5 1.05v16.37z" fill="#9d5025"/><path d="M238.2-511.95L220-510v16.38l18.2-4.88v-13.45z" fill="#f58536"/><use xlink:href="#m" transform="matrix(1,0,0,1,200,50) translate(246.820987654321 11.11111111111111)"/><use xlink:href="#n" transform="matrix(1,0,0,1,200,50) translate(318.3024691358024 11.11111111111111)"/><use xlink:href="#o" transform="matrix(1,0,0,1,200,50) translate(421.94444444444446 11.11111111111111)"/><path d="M364.96-429.66l-4.96 2.5v70.32l4.96 2.48 20.1-35.84-20.1-39.46z" fill="#9d5025"/><path d="M376.52-357.07l-11.56 2.7v-75.3l11.56 2.65v69.95z" fill="#f58536"/><path d="M370.43-432.42l6.1-3.04 28.97 46.58-28.96 40.32-6.1-3.04v-80.82z" fill="#9d5025"/><path d="M390.96-352.64l-14.43 4.08v-86.9l14.43 4.08v78.74z" fill="#f58536"/><path d="M383.32-438.87l7.66-3.85 42.72 58.92-42.72 42.5-7.66-3.85v-93.72z" fill="#9d5025"/><path d="M409.48-348.1l-18.5 6.8v-101.42l18.5 6.8v87.82z" fill="#f58536"/><path d="M399.6-447.08l9.88-4.92 46.23 63.36L409.5-332l-9.87-4.92v-110.16z" fill="#9d5025"/><path d="M459-356.84L409.47-332v-120l49.5 24.84v70.32z" fill="#f58536"/><use xlink:href="#a" transform="matrix(1,0,0,1,360,-332) translate(8.79012345679012 17.77777777777778)"/><use xlink:href="#p" transform="matrix(1,0,0,1,360,-332) translate(27.925925925925927 44.44444444444444)"/><path d="M744.96-432.66l-4.96 2.5v70.32l4.96 2.48 20.1-35.84-20.1-39.46z" fill="#9d5025"/><path d="M756.52-360.07l-11.56 2.7v-75.3l11.56 2.65v69.95z" fill="#f58536"/><path d="M750.43-435.42l6.1-3.04 28.97 46.58-28.96 40.32-6.1-3.04v-80.82z" fill="#9d5025"/><path d="M770.96-355.64l-14.43 4.08v-86.9l14.43 4.08v78.74z" fill="#f58536"/><path d="M763.32-441.87l7.66-3.85 42.72 58.92-42.72 42.5-7.66-3.85v-93.72z" fill="#9d5025"/><path d="M789.48-351.1l-18.5 6.8v-101.42l18.5 6.8v87.82z" fill="#f58536"/><path d="M779.6-450.08l9.88-4.92 46.23 63.36L789.5-335l-9.87-4.92v-110.16z" fill="#9d5025"/><path d="M839-359.84L789.47-335v-120l49.5 24.84v70.32z" fill="#f58536"/><use xlink:href="#a" transform="matrix(1,0,0,1,740,-335) translate(8.79012345679012 17.77777777777778)"/><use xlink:href="#p" transform="matrix(1,0,0,1,740,-335) translate(27.925925925925927 44.44444444444444)"/><path d="M607.25-359.5v-17.63l-7.55-7.53-4.96-4.94 4.96-4.94 7.55-7.52V-420.2h8.8v-5.7L592-442.47l-24.07 16.55v5.7h8.8V-402.05l7.56 7.52 4.95 4.94-4.96 4.94-7.56 7.53v17.62l-8.8-5.38v5.8L591.98-335l24.06-24.08v-5.8l-8.8 5.37z" fill="#9d5025"/><path d="M578-389.62v-5.78l-24.05-6.77H532v25.1h21.95v11.5L578-389.63zM652-402.17h-21.96l-24.06 6.77v5.78l24.06 24.04v-11.5H652v-25.1z" fill="#9d5025"/><path d="M607.25-365.24v-17.7l-7.55-7.53-4.96-4.92 4.96-5 7.55-7.44v-18.13h8.8L592-450l-24.07 24.03h8.8v18.14l7.56 7.42 4.95 5-4.96 4.93-7.56 7.54v18.13h-8.8l24.05 24.03 24.06-24.03h-8.8v-.44z" fill="#f58536"/><path d="M578-395.4l-24.05-24.06v11.5H532v25.12h21.95v11.5L578-395.4zM652-407.96h-21.96v-11.5l-24.06 24.06 24.06 24.06v-11.5H652v-25.12z" fill="#f58536"/><use xlink:href="#q" transform="matrix(1,0,0,1,532,-335) translate(37.160493827160494 17.77777777777778)"/><use xlink:href="#r" transform="matrix(1,0,0,1,532,-335) translate(23.641975308641975 44.44444444444444)"/><path d="M1621.18-127.78c11.06 0 18.8 6.98 18.8 16.92v21.58h-9.72v-14.64h-2.67v14.64h-14.98c-1-10.94-9.84-18.38-22.24-18.38h-8.62v-5.97c9.5-.85 17.12-4.5 17.94-14.2h.87zM1559.34-127.8h.93c.88 9.68 8.44 13.34 17.93 14.2v5.93h-8.44c-12.4 0-21.3 7.48-22.23 18.4h-14.67v-14.66h-2.67l-.02 14.65H1520v-21.63c0-10 7.74-16.94 18.86-16.94z" fill="#7d7c7c"/><path d="M1590.3-98.57c11.06 0 18.8 6.98 18.8 16.93V-60h-9.78v-14.7h-2.62v14.65h-33.07V-74.7h-2.56v14.65h-10.2v-21.6c0-9.94 7.75-16.92 18.8-16.92zM1549.06-169.94l16.32 11.6v5c.1 9.14-7.18 16.6-16.28 16.7h-.04c-8.94 0-16.32-7.47-16.32-17.42v-4.4zM1610.86-169.94l16.32 11.6v5c.1 9.14-7.18 16.6-16.28 16.7h-.04c-8.94 0-16.32-7.47-16.32-17.42v-4.4zM1580-147.16l14.4 10.2v4.5c.14 8.07-6.28 14.72-14.35 14.87h-.06c-8.17-.2-14.63-6.94-14.42-15.1 0-.12 0-.2.02-.33v-4.02z" fill="#7d7c7c"/><path d="M1610.88-175c9.18-.17 16.76 7.16 16.93 16.35.17 9.2-7.14 16.78-16.32 16.94-9.18.16-16.76-7.17-16.92-16.35v-.34c-.07-9.08 7.2-16.53 16.32-16.6zM1579.96-152.3c8.14-.2 14.9 6.25 15.1 14.4.18 8.15-6.25 14.9-14.4 15.12-8.13.18-14.9-6.26-15.1-14.4v-.36c-.08-8.07 6.35-14.65 14.4-14.77zM1621.18-132.92c11.06 0 18.8 6.98 18.8 16.94v21.64h-9.72V-109h-2.67v14.66h-14.98c-1-10.96-9.84-18.36-22.24-18.36h-8.62v-1.9c9.73-.96 17.12-8.52 17.94-18.24h.87zM1559.34-132.9h.93c.82 9.75 8.2 17.3 17.93 18.27v1.85h-8.44c-12.4 0-21.3 7.48-22.23 18.4h-14.67V-109h-2.67l-.02 14.65H1520v-21.63c0-10 7.74-16.93 18.86-16.93z" fill="#d2d3d3"/><path d="M1590.3-103.63c11.06 0 18.8 6.98 18.8 16.93v21.63h-9.78v-14.65h-2.62v14.65h-33.07v-14.65h-2.56v14.65h-10.2V-86.7c0-9.95 7.75-16.93 18.8-16.93zM1549.07-175c9.18-.17 16.76 7.16 16.93 16.35.16 9.2-7.15 16.78-16.33 16.94-9.18.16-16.76-7.17-16.93-16.35v-.34c-.06-9.08 7.22-16.5 16.33-16.6z" fill="#d2d3d3"/><use xlink:href="#s" transform="matrix(1,0,0,1,1520,-60) translate(22.01851851851852 24.888888888888893)"/><path d="M360-1260h620v100H360z" stroke="#fff" stroke-width="2" fill="#fff"/><use xlink:href="#t" transform="matrix(1,0,0,1,360,-1260) translate(145.83333333333331 58)"/><use xlink:href="#u" transform="matrix(1,0,0,1,360,-1260) translate(261.16666666666663 58)"/><path d="M946-983.1c0 6.35-20.6 11.65-46 11.65s-46-5.2-46-11.65v-5.26l46-6.35 46 6.34zM900-962.13l-46 65.2v5.26c0 6.4 20.6 11.66 46 11.66 25.38 0 46-5.2 46-11.67v-5.26z" fill="#19486f"/><path d="M900-1000c25.38 0 46 5.22 46 11.65 0 6.43-20.62 11.65-46 11.65-25.4 0-46-5.22-46-11.65 0-6.43 20.6-11.65 46-11.65z" fill="#2e73b8"/><path d="M900-967.4c-25.4 0-46-5.17-46-11.64v82.14c0 6.38 20.6 11.63 46 11.63 25.38 0 46-5.25 46-11.63v-82.14c0 6.47-20.62 11.63-46 11.63z" fill="#2e73b8"/><path d="M889.68-916.88c.3 7.02 4.63 9.25 11.22 9.25 4.64 0 9.43-1.67 9.43-6.08 0-5.23-8.4-6.35-17-8.65-8.6-2.3-17.35-6.33-17.35-17.2 0-12.98 13.03-18.08 24.15-18.08 11.8 0 23.7 5.78 23.74 19.2h-15.45c.26-5.47-4.8-7.2-9.53-7.2-3.35 0-7.47 1.17-7.47 5.08 0 4.6 8.55 5.4 17.15 7.83 8.65 2.42 17.2 6.33 17.2 17.2 0 15.1-12.77 20-25.8 20-13.6 0-25.6-6.02-25.7-21.18z" fill="#fff"/><use xlink:href="#v" transform="matrix(1,0,0,1,854,-880) translate(4.117283950617285 17.77777777777778)"/><use xlink:href="#g" transform="matrix(1,0,0,1,854,-880) translate(57.08024691358025 17.77777777777778)"/><use xlink:href="#w" transform="matrix(1,0,0,1,854,-880) translate(4.672839506172842 44.44444444444444)"/><use xlink:href="#x" transform="matrix(1,0,0,1,854,-880) translate(7.111111111111114 71.11111111111111)"/><use xlink:href="#y" transform="matrix(1,0,0,1,854,-880) translate(-2.5493827160493865 97.77777777777777)"/><path d="M300-450c0-16.57 13.43-30 30-30h540c16.57 0 30 13.43 30 30v180c0 16.57-13.43 30-30 30H330c-16.57 0-30-13.43-30-30z" fill="none"/><path d="M308.1-470.33l1.5-1.64m9.46-5.9l3.86-1.3 4.93-.75L330-480h14.3m14.27 0h2.86m14.28 0h28.6m14.27 0h2.86m14.28 0h28.6m14.27 0h2.86m14.28 0h28.6m14.27 0h2.86m14.28 0h28.6m14.27 0h2.86m14.28 0h28.6m14.27 0h2.86m14.28 0h28.6m14.27 0h2.86m14.28 0h28.6m14.27 0h2.86m14.28 0h28.6m14.27 0h2.86m14.28 0H870l5 .42 4.82 1.22 1.1.5m9.4 5.95l1.65 1.5m5.9 9.46l1.3 3.86.75 4.93.08 2.15v14.3m0 14.27v2.86m0 14.28v28.6m0 14.27v2.86m0 14.28v28.6m0 14.27v2.86m0 14.28v14.3l-.42 5-1.22 4.82-.5 1.1m-5.95 9.4l-1.5 1.65m-9.46 5.9l-3.86 1.3-4.93.75-2.15.08h-14.3m-14.27 0h-2.86m-14.28 0h-28.6m-14.27 0h-2.86m-14.28 0h-28.6m-14.27 0h-2.86m-14.28 0h-28.6m-14.27 0h-2.86m-14.28 0h-28.6m-14.27 0h-2.86m-14.28 0h-28.6m-14.27 0h-2.86m-14.28 0h-28.6m-14.27 0h-2.86m-14.28 0h-28.6m-14.27 0h-2.86m-14.28 0h-28.6m-14.27 0h-2.86m-14.28 0H330l-5-.42-4.82-1.22-1.1-.5m-9.4-5.95l-1.65-1.5m-5.9-9.46l-1.3-3.86-.75-4.93L300-270v-14.3m0-14.27v-2.86m0-14.28v-28.6m0-14.27v-2.86m0-14.28v-28.6m0-14.27v-2.86m0-14.28V-450l.42-5 1.22-4.82.5-1.1" stroke="#474747" stroke-width="3" fill="none"/><use xlink:href="#z" transform="matrix(1,0,0,1,300,-270) translate(206.26543209876544 11.11111111111111)"/><use xlink:href="#A" transform="matrix(1,0,0,1,300,-270) translate(258.1172839506173 11.11111111111111)"/><use xlink:href="#B" transform="matrix(1,0,0,1,300,-270) translate(337.0061728395062 11.11111111111111)"/><path d="M224-990c0-16.57 13.43-30 30-30h175c16.57 0 30 13.43 30 30v220c0 16.57-13.43 30-30 30H254c-16.57 0-30-13.43-30-30z" fill="none"/><path d="M239.04-1015.9l3.17-1.7 4.72-1.56 4.93-.76 2.15-.08h14.58m14.6 0h29.15m14.6 0h29.15m14.6 0h29.15m14.6 0H429l5 .42 4.82 1.22 4.54 2 .6.42m10.95 10.98l1.7 3.17 1.56 4.72.76 4.93.08 2.15v14.67m0 14.66v29.34m0 14.66v29.34m0 14.66v29.34m0 14.66v29.34m0 14.66V-770l-.42 5-1.22 4.82-2 4.54-.42.6m-10.98 10.95l-3.17 1.7-4.72 1.56-4.93.76-2.15.08h-14.58m-14.6 0h-29.15m-14.6 0h-29.15m-14.6 0h-29.15m-14.6 0H254l-5-.42-4.82-1.22-4.54-2-.6-.42m-10.95-10.98l-1.7-3.17-1.56-4.72-.76-4.93L224-770v-14.67m0-14.66v-29.34m0-14.66v-29.34m0-14.66v-29.34m0-14.66v-29.34m0-14.66V-990l.42-5 1.22-4.82 2-4.54.42-.6" stroke="#f7981f" stroke-width="3" fill="none"/><use xlink:href="#C" transform="matrix(1,0,0,1,223.99999999999994,-770) translate(37.53703703703704 11.11111111111111)"/><use xlink:href="#D" transform="matrix(1,0,0,1,223.99999999999994,-770) translate(147.9074074074074 11.11111111111111)"/><path d="M780-990c0-16.57 13.43-30 30-30h180c16.57 0 30 13.43 30 30v220c0 16.57-13.43 30-30 30H810c-16.57 0-30-13.43-30-30z" fill="none"/><path d="M795.04-1015.9l3.17-1.7 4.72-1.56 4.93-.76 2.15-.08h15m15 0h30m15 0h30m15 0h30m15 0h15l5 .42 4.82 1.22 4.54 2 .6.42m10.95 10.98l1.7 3.17 1.56 4.72.76 4.93.08 2.15v14.67m0 14.66v29.34m0 14.66v29.34m0 14.66v29.34m0 14.66v29.34m0 14.66V-770l-.42 5-1.22 4.82-2 4.54-.42.6m-10.98 10.95l-3.17 1.7-4.72 1.56-4.93.76-2.15.08h-15m-15 0h-30m-15 0h-30m-15 0h-30m-15 0h-15l-5-.42-4.82-1.22-4.54-2-.6-.42m-10.95-10.98l-1.7-3.17-1.56-4.72-.76-4.93L780-770v-14.67m0-14.66v-29.34m0-14.66v-29.34m0-14.66v-29.34m0-14.66v-29.34m0-14.66V-990l.42-5 1.22-4.82 2-4.54.42-.6" stroke="#f7981f" stroke-width="3" fill="none"/><use xlink:href="#C" transform="matrix(1,0,0,1,780,-770) translate(39.53703703703704 11.11111111111111)"/><use xlink:href="#D" transform="matrix(1,0,0,1,780,-770) translate(149.9074074074074 11.11111111111111)"/><path d="M677-717.64c0 31.8-25.76 57.63-57.5 57.63S562-685.84 562-717.65c0-31.8 25.76-57.63 57.5-57.63s57.5 25.82 57.5 57.63z" fill="#9d5025"/><path d="M677-722.37c0 31.8-25.76 57.63-57.5 57.63S562-690.56 562-722.37c0-31.8 25.76-57.63 57.5-57.63s57.5 25.82 57.5 57.63z" fill="#f58536"/><path d="M619.52-679.56l-.92-.34c-7.16-3-12.63-7.02-17.52-13.02-5.47-6.25-9-12.5-11.85-20.3-3.83-11.2-5.4-21.23-5.25-33.05V-749h2.76c2.42 0 7.03-.86 8.8-2.66 1.85-2.23 2.9-4.63 3.2-7.54l.07-1.7 1.7-.7c6.4-2.3 12.14-3.42 19.02-3.6 6.82.26 12.56 1.38 18.95 3.6l1.7.7.14 1.7c.3 2.9 1.3 5.23 3.07 7.45 1.7 1.7 6.74 2.5 8.87 2.57l2.7.1v2.64c.2 11.9-1.43 21.92-5.2 33.14-2.76 7.88-6.37 14.04-11.77 20.38-4.9 6-10.36 10.02-17.52 13.02zm-29.87-64.14c.43 19.44 5.68 35.62 15.4 46.93 4.12 4.96 8.6 8.48 14.47 11.3 5.82-2.82 10.3-6.34 14.4-11.3 9.73-11.4 14.98-27.58 15.4-47.1-2.9-.43-7.37-1.37-9.86-3.85-2.4-2.66-3.83-5.57-4.4-9.08-5.32-1.8-10-2.65-15.54-2.83-5.6.18-10.28.95-15.6 2.74-.57 3.6-1.92 6.44-4.33 9.18-3 2.4-6.12 3.68-9.95 4.02z" fill="#fff"/><path d="M636.62-725.03c-3.43 3.4-13.78 10.68-17.7 14.64v-11.35h-45.8v-6.8h45.66v-11.2c3.8 3.77 14.16 11.02 17.84 14.72z" fill="#fff"/><use xlink:href="#E" transform="matrix(1,0,0,1,562,-660) translate(9.382716049382715 17.77777777777778)"/><path d="M1198-514.58l57.98 8.62v5.1c0 7.53-25.98 13.63-58 13.63-32 0-57.98-6.1-57.98-13.64v-5.53z" fill="#8c3123"/><path d="M1198.02-477.87c24.2 0 44.93-3.54 53.58-8.5l2.88-4.78 1.15-4.4v5.45l-19 81c0 5.08-17.3 9.1-38.6 9.1-21.33 0-38.6-4.02-38.6-9.1l-19.02-81v-5.35l4.38 9.27c8.76 4.87 29.27 8.3 53.24 8.3z" fill="#8c3123"/><path d="M1198-520c32 0 58 6.12 58 13.62 0 7.5-26 13.57-58 13.57s-58-6.02-58-13.58c0-7.56 26-13.62 58-13.62z" fill="#e05243"/><path d="M1198-483.4c29.84 0 54.4-5.2 57.62-12.06l-19.02 81c0 5.05-17.3 9.1-38.6 9.1-21.33 0-38.6-4.05-38.6-9.1l-19.03-81c3.23 6.85 27.78 12.07 57.62 12.07z" fill="#e05243"/><path d="M1184.35-475.62h25.1v24.96h-25.1v-24.96zM1176.75-441.83c6.84 0 12.4 5.5 12.4 12.3 0 6.8-5.56 12.3-12.4 12.3-6.83 0-12.38-5.5-12.38-12.3 0-6.8 5.55-12.3 12.38-12.3zM1228.8-417.8H1204l12.4-22.94 12.4 22.94z" fill="#fff"/><use xlink:href="#F" transform="matrix(1,0,0,1,1140,-400) translate(2.5061728395061778 17.77777777777778)"/><use xlink:href="#G" transform="matrix(1,0,0,1,1140,-400) translate(74.11111111111111 17.77777777777778)"/><use xlink:href="#H" transform="matrix(1,0,0,1,1140,-400) translate(22.845679012345684 44.44444444444444)"/><path d="M460.5-880l2.1.04 1.97.13 1.84.2 1.75.25 1.65.3 1.56.38 1.5.42 1.44.46 1.38.52 1.34.56 1.3.6 1.27.68 1.23.7 1.22.8 1.2.82 1.18.9 1.18.97 1.18 1.05 1.16 1.14 1.17 1.25 1.18 1.36 1.18 1.5 1.2 1.63 1.2 1.83 1.25 2.03 1.27 2.3 1.3 2.62 1.34 3 1.4 3.53 1.45 4.2 1.54 5.1 1.66 6.5 1.87 8.9 2.5 14.95 7.07 48.56 1.75 8.3 1.54 6 1.4 4.67 1.3 3.78 1.25 3.15 1.2 2.67 1.13 2.3 1.1 2.03 1.1 1.78 1.04 1.6 1.04 1.4 1 1.3 1.02 1.16 1 1.06 1 .97.97.9 1 .8 1 .77 1 .7 1 .64 1.04.6 1.04.55 1.08.5 1.1.47.93.34M460.5-880l-2.95-.5" stroke="#f90" stroke-width="2" fill="none"/><path d="M559.33-710.24l-14.58 3.54.7-9.24z" fill="#f90"/><path d="M562.55-710l-18.9 4.6.9-12zm-16.7 2l10.25-2.5-9.75-4z" fill="#f90"/><path d="M778.5-880l-.95.02-.93.06-.92.1-.9.13-.9.18-.88.2-.9.25-.88.3-.9.33-.9.37-.9.43-.93.5-.94.53-.97.6-1 .7-1.04.8-1.07.88-1.14 1-1.17 1.17-1.26 1.32-1.32 1.54-1.42 1.8-1.54 2.1-1.67 2.54-1.86 3.05-2.07 3.77-2.38 4.8-2.83 6.36-3.56 9.02L735.2-820l-20.65 65.15-3.55 9.02-2.83 6.35-2.37 4.8-2.08 3.8-1.85 3.04-1.67 2.53-1.53 2.1-1.42 1.8-1.33 1.53-1.24 1.32-1.18 1.16-.6.55" fill="none"/><path d="M778.5-880l-.95.02-.93.06-.92.1-.9.13-.9.18-.88.2-.9.25-.88.3-.9.33-.9.37-.9.43-.24.13m-8.37 6.42l-.9.95-1.3 1.54-1.43 1.8-1.54 2.1-1.67 2.54-1.86 3.05-2.07 3.77-.92 1.85m-4.4 9.64l-3.44 8.7-3.86 11.2m-3.3 10.08l-6.4 20.2m-3.22 10.12l-6.4 20.2m-3.3 10.08l-2.94 7.43-2.83 6.35-2.37 4.8-.44.8m-5.5 9.05l-1.2 1.63-1.4 1.8-1.34 1.53-1.24 1.32-1.18 1.16-.6.55M778.5-880l2.83-.98" stroke="#f90" stroke-width="2" fill="none"/><path d="M694.38-712.46l-14.95 1.2L690.8-721z" fill="#f90"/><path d="M695.83-711.57l-19.4 1.57 14.78-12.67zm-13.4-.92l10.5-.84-2.5-6.02z" fill="#f90"/><path d="M619.5-660l-2.17 64.67-.04.97-.02 1.62.15 3.35 4.36 61.68-.07 16.24-.57 11.82" stroke="#f90" stroke-width="2" fill="none"/><path d="M619.5-660h.53l.47-.04v.06l-2-.06v-.02z" fill="#f90"/><path d="M619.8-484.72l-3.32-14.63 9.23.84z" stroke="#f90" stroke-width="2" fill="#f90"/><path d="M409.5-332l1.95 3.66 2.1 3.55 2.2 3.46 2.4 3.37 2.55 3.3 2.74 3.28 2.97 3.26 3.23 3.24 3.53 3.26 3.88 3.3 4.34 3.38 4.9 3.5 5.65 3.7 6.74 4 8.48 4.58 12.24 5.94 50.85 22.86 7.1 3.83 5.42 3.23 4.43 2.88 3.72 2.67 3.22 2.5 2.82 2.4 2.5 2.33 2.27 2.26 2.03 2.23 1.85 2.2 1.7 2.2 1.56 2.2 1.43 2.2 1.3 2.25 1.22 2.3 1.12 2.32 1.02 2.4.94 2.46.86 2.56.76 2.67.53 2.2" stroke="#f90" stroke-width="2" fill="none"/><path d="M409.48-332l.05-.03-.88.54-.8-1.32zM579.65-183.22l-6.13-13.7 9.22-.98z" fill="#f90"/><path d="M580-180l-7.96-17.75 11.96-1.3zm-5-16.06l4.3 9.63 2.18-10.33z" fill="#f90"/><path d="M789.5-335l1.3 2.73 1.07 2.46.85 2.22.68 2.05.55 1.88.42 1.75.32 1.64.23 1.54.17 1.45.1 1.37.03 1.32-.02 1.26-.05 1.2-.12 1.18-.16 1.14-.2 1.1-.25 1.1-.3 1.06-.32 1.05-.38 1.06-.42 1.03-.48 1.02-.53 1.04-.6 1.03-.66 1.04-.72 1.06-.8 1.08-.9 1.1-1 1.14-1.14 1.16-1.26 1.2-1.44 1.27-1.64 1.3-1.87 1.4-2.18 1.47-2.57 1.57-3.05 1.7-3.7 1.85-4.57 2.08-5.87 2.37-7.97 2.83-12.08 3.72-89.3 23.7-10.42 3.7-8.02 3.24-6.47 2.93-5.37 2.7-4.55 2.55-3.9 2.4-3.42 2.3-3 2.2-2.64 2.14-2.37 2.07-2.12 2-1.9 2-1.73 1.93-1.56 1.92-1.42 1.9-1.3 1.9-1.18 1.9-1.08 1.9-.98 1.9-.9 1.94-.8 1.94-.66 1.84" stroke="#f90" stroke-width="2" fill="none"/><path d="M789.48-335l-.92.33-.35-.96zm.96-.35l-.95.35.9-.46zM587.35-196.55l-6.84 13.35-2.3-14.82z" fill="#f90"/><path d="M588.87-197.3L580-180l-3-19.22zm-7.84 10.9l4.8-9.38-6.43-1.03z" fill="#f90"/><path d="M901.5-360l10.33-.2 9.74-.63 9.3-.97 9-1.33 8.8-1.68 8.73-2.06 8.85-2.47 9.16-2.98 9.77-3.64 10.94-4.6 13.5-6.38 25.35-13.4 43.2-23.16 15.83-7.47 13.48-5.68 12.53-4.66 12.17-3.95h.03M901.5-360l-3 .1" stroke="#f90" stroke-width="2" fill="none"/><path d="M1146.7-449.16l-12.58 8.2-2.4-8.97z" fill="#f90"/><path d="M1149.8-450l-16.3 10.6-3.12-11.6zm-15.08 7.44l8.84-5.76-10.53-.54z" fill="#f90"/><path d="M1198-400l-8.04 52.13-14.8 87.25-2.8 25.37-1.66 24.64-.32 12.37" stroke="#f90" stroke-width="2" fill="none"/><path d="M1199-399.86l-1.03-.15h.05l1-.02zM1175-197.4l-4.93 14.16-4.34-14.36z" fill="#f90"/><path d="M1176.4-198.37L1170-180l-5.62-18.62zm-6.26 11.9l3.46-9.96-6.5-.14z" fill="#f90"/><path d="M655.18-110h450.8" stroke="#f90" stroke-width="2" fill="none"/><path d="M654.45-105.36L640.18-110l14.27-4.64z" fill="#f90"/><path d="M655.45-104l-18.5-6 18.5-6zm-12.03-6l10.03 3.26v-6.52zM1120.98-110l-.76.24-.17.02h-.05v.06l-13.3 4.32v-9.28z" fill="#f90"/><path d="M1124.2-110l-4.15.26h-.05v1.1l-14.3 4.65v-12zm-16.5 3.26l10.04-3.26-10.03-3.26z" fill="#f90"/><path d="M1501.76-107.65l-268.04-2.2" stroke="#f90" stroke-width="2" fill="none"/><path d="M1516.76-107.53l-14.3 4.52.08-9.28z" fill="#f90"/><path d="M1520-107.5l-18.55 5.86.1-12.02zm-16.53 3.12l10.06-3.17-10-3.34zM1232.95-105.22l-13.2-4.4v-.1l-.38-.04-.65-.2 14.3-4.53z" fill="#f90"/><path d="M1233.94-103.84l-14.18-4.73v-1.15h-.02l-4.25-.28 18.54-5.86zm-11.98-6.1l10 3.33.05-6.52z" fill="#f90"/><defs><path d="M205 0l-28-72H64L36 0H1l101-248h38L239 0h-34zm-38-99l-47-123c-12 45-31 82-46 123h93" id="I"/><path d="M210-169c-67 3-38 105-44 169h-31v-121c0-29-5-50-35-48C34-165 62-65 56 0H25l-1-190h30c1 10-1 24 2 32 10-44 99-50 107 0 11-21 27-35 58-36 85-2 47 119 55 194h-31v-121c0-29-5-49-35-48" id="J"/><path d="M141-36C126-15 110 5 73 4 37 3 15-17 15-53c-1-64 63-63 125-63 3-35-9-54-41-54-24 1-41 7-42 31l-33-3c5-37 33-52 76-52 45 0 72 20 72 64v82c-1 20 7 32 28 27v20c-31 9-61-2-59-35zM48-53c0 20 12 33 32 33 41-3 63-29 60-74-43 2-92-5-92 41" id="K"/><path d="M9 0v-24l116-142H16v-24h144v24L44-24h123V0H9" id="L"/><path d="M100-194c62-1 85 37 85 99 1 63-27 99-86 99S16-35 15-95c0-66 28-99 85-99zM99-20c44 1 53-31 53-75 0-43-8-75-51-75s-53 32-53 75 10 74 51 75" id="M"/><path d="M117-194c89-4 53 116 60 194h-32v-121c0-31-8-49-39-48C34-167 62-67 57 0H25l-1-190h30c1 10-1 24 2 32 11-22 29-35 61-36" id="N"/><g id="a"><use transform="matrix(0.06172839506172839,0,0,0.06172839506172839,0,0)" xlink:href="#I"/><use transform="matrix(0.06172839506172839,0,0,0.06172839506172839,14.814814814814813,0)" xlink:href="#J"/><use transform="matrix(0.06172839506172839,0,0,0.06172839506172839,33.2716049382716,0)" xlink:href="#K"/><use transform="matrix(0.06172839506172839,0,0,0.06172839506172839,45.61728395061728,0)" xlink:href="#L"/><use transform="matrix(0.06172839506172839,0,0,0.06172839506172839,56.72839506172839,0)" xlink:href="#M"/><use transform="matrix(0.06172839506172839,0,0,0.06172839506172839,69.07407407407408,0)" xlink:href="#N"/></g><path d="M212-179c-10-28-35-45-73-45-59 0-87 40-87 99 0 60 29 101 89 101 43 0 62-24 78-52l27 14C228-24 195 4 139 4 59 4 22-46 18-125c-6-104 99-153 187-111 19 9 31 26 39 46" id="O"/><path d="M24 0v-261h32V0H24" id="P"/><path d="M84 4C-5 8 30-112 23-190h32v120c0 31 7 50 39 49 72-2 45-101 50-169h31l1 190h-30c-1-10 1-25-2-33-11 22-28 36-60 37" id="Q"/><path d="M85-194c31 0 48 13 60 33l-1-100h32l1 261h-30c-2-10 0-23-3-31C134-8 116 4 85 4 32 4 16-35 15-94c0-66 23-100 70-100zm9 24c-40 0-46 34-46 75 0 40 6 74 45 74 42 0 51-32 51-76 0-42-9-74-50-73" id="R"/><path d="M63-220v92h138v28H63V0H30v-248h175v28H63" id="S"/><path d="M114-163C36-179 61-72 57 0H25l-1-190h30c1 12-1 29 2 39 6-27 23-49 58-41v29" id="T"/><path d="M59-47c-2 24 18 29 38 22v24C64 9 27 4 27-40v-127H5v-23h24l9-43h21v43h35v23H59v120" id="U"/><g id="b"><use transform="matrix(0.06172839506172839,0,0,0.06172839506172839,0,0)" xlink:href="#O"/><use transform="matrix(0.06172839506172839,0,0,0.06172839506172839,15.987654320987653,0)" xlink:href="#P"/><use transform="matrix(0.06172839506172839,0,0,0.06172839506172839,20.864197530864196,0)" xlink:href="#M"/><use transform="matrix(0.06172839506172839,0,0,0.06172839506172839,33.20987654320987,0)" xlink:href="#Q"/><use transform="matrix(0.06172839506172839,0,0,0.06172839506172839,45.55555555555555,0)" xlink:href="#R"/><use transform="matrix(0.06172839506172839,0,0,0.06172839506172839,57.90123456790123,0)" xlink:href="#S"/><use transform="matrix(0.06172839506172839,0,0,0.06172839506172839,71.41975308641975,0)" xlink:href="#T"/><use transform="matrix(0.06172839506172839,0,0,0.06172839506172839,78.76543209876543,0)" xlink:href="#M"/><use transform="matrix(0.06172839506172839,0,0,0.06172839506172839,91.11111111111111,0)" xlink:href="#N"/><use transform="matrix(0.06172839506172839,0,0,0.06172839506172839,103.4567901234568,0)" xlink:href="#U"/></g><path d="M115-194c55 1 70 41 70 98S169 2 115 4C84 4 66-9 55-30l1 105H24l-1-265h31l2 30c10-21 28-34 59-34zm-8 174c40 0 45-34 45-75s-6-73-45-74c-42 0-51 32-51 76 0 43 10 73 51 73" id="V"/><path d="M24-231v-30h32v30H24zM24 0v-190h32V0H24" id="W"/><path d="M96-169c-40 0-48 33-48 73s9 75 48 75c24 0 41-14 43-38l32 2c-6 37-31 61-74 61-59 0-76-41-82-99-10-93 101-131 147-64 4 7 5 14 7 22l-32 3c-4-21-16-35-41-35" id="X"/><g id="c"><use transform="matrix(0.06172839506172839,0,0,0.06172839506172839,0,0)" xlink:href="#I"/><use transform="matrix(0.06172839506172839,0,0,0.06172839506172839,14.814814814814813,0)" xlink:href="#V"/><use transform="matrix(0.06172839506172839,0,0,0.06172839506172839,27.160493827160494,0)" xlink:href="#V"/><use transform="matrix(0.06172839506172839,0,0,0.06172839506172839,39.50617283950617,0)" xlink:href="#P"/><use transform="matrix(0.06172839506172839,0,0,0.06172839506172839,44.382716049382715,0)" xlink:href="#W"/><use transform="matrix(0.06172839506172839,0,0,0.06172839506172839,49.25925925925926,0)" xlink:href="#X"/><use transform="matrix(0.06172839506172839,0,0,0.06172839506172839,60.37037037037037,0)" xlink:href="#K"/><use transform="matrix(0.06172839506172839,0,0,0.06172839506172839,72.71604938271605,0)" xlink:href="#U"/><use transform="matrix(0.06172839506172839,0,0,0.06172839506172839,78.88888888888889,0)" xlink:href="#W"/><use transform="matrix(0.06172839506172839,0,0,0.06172839506172839,83.76543209876543,0)" xlink:href="#M"/><use transform="matrix(0.06172839506172839,0,0,0.06172839506172839,96.11111111111111,0)" xlink:href="#N"/></g><path d="M30 0v-248h33v221h125V0H30" id="Y"/><g id="d"><use transform="matrix(0.06172839506172839,0,0,0.06172839506172839,0,0)" xlink:href="#Y"/><use transform="matrix(0.06172839506172839,0,0,0.06172839506172839,12.345679012345679,0)" xlink:href="#M"/><use transform="matrix(0.06172839506172839,0,0,0.06172839506172839,24.691358024691358,0)" xlink:href="#K"/><use transform="matrix(0.06172839506172839,0,0,0.06172839506172839,37.03703703703704,0)" xlink:href="#R"/></g><path d="M160-131c35 5 61 23 61 61C221 17 115-2 30 0v-248c76 3 177-17 177 60 0 33-19 50-47 57zm-97-11c50-1 110 9 110-42 0-47-63-36-110-37v79zm0 115c55-2 124 14 124-45 0-56-70-42-124-44v89" id="Z"/><path d="M100-194c63 0 86 42 84 106H49c0 40 14 67 53 68 26 1 43-12 49-29l28 8c-11 28-37 45-77 45C44 4 14-33 15-96c1-61 26-98 85-98zm52 81c6-60-76-77-97-28-3 7-6 17-6 28h103" id="aa"/><g id="e"><use transform="matrix(0.06172839506172839,0,0,0.06172839506172839,0,0)" xlink:href="#Z"/><use transform="matrix(0.06172839506172839,0,0,0.06172839506172839,14.814814814814813,0)" xlink:href="#K"/><use transform="matrix(0.06172839506172839,0,0,0.06172839506172839,27.160493827160494,0)" xlink:href="#P"/><use transform="matrix(0.06172839506172839,0,0,0.06172839506172839,32.03703703703704,0)" xlink:href="#K"/><use transform="matrix(0.06172839506172839,0,0,0.06172839506172839,44.382716049382715,0)" xlink:href="#N"/><use transform="matrix(0.06172839506172839,0,0,0.06172839506172839,56.72839506172839,0)" xlink:href="#X"/><use transform="matrix(0.06172839506172839,0,0,0.06172839506172839,67.8395061728395,0)" xlink:href="#aa"/><use transform="matrix(0.06172839506172839,0,0,0.06172839506172839,80.18518518518519,0)" xlink:href="#T"/></g><path d="M240 0l2-218c-23 76-54 145-80 218h-23L58-218 59 0H30v-248h44l77 211c21-75 51-140 76-211h43V0h-30" id="ab"/><path d="M179-190L93 31C79 59 56 82 12 73V49c39 6 53-20 64-50L1-190h34L92-34l54-156h33" id="ac"/><path d="M185-189c-5-48-123-54-124 2 14 75 158 14 163 119 3 78-121 87-175 55-17-10-28-26-33-46l33-7c5 56 141 63 141-1 0-78-155-14-162-118-5-82 145-84 179-34 5 7 8 16 11 25" id="ad"/><path d="M140-251c81 0 123 46 123 126C263-53 228-8 163 1c7 30 30 48 69 40v23c-55 16-95-15-103-61C56-3 17-48 17-125c0-80 42-126 123-126zm0 227c63 0 89-41 89-101s-29-99-89-99c-61 0-89 39-89 99S79-25 140-24" id="ae"/><g id="f"><use transform="matrix(0.06172839506172839,0,0,0.06172839506172839,0,0)" xlink:href="#ab"/><use transform="matrix(0.06172839506172839,0,0,0.06172839506172839,18.456790123456788,0)" xlink:href="#ac"/><use transform="matrix(0.06172839506172839,0,0,0.06172839506172839,29.5679012345679,0)" xlink:href="#ad"/><use transform="matrix(0.06172839506172839,0,0,0.06172839506172839,44.38271604938271,0)" xlink:href="#ae"/><use transform="matrix(0.06172839506172839,0,0,0.06172839506172839,61.66666666666666,0)" xlink:href="#Y"/></g><path d="M30-248c118-7 216 8 213 122C240-48 200 0 122 0H30v-248zM63-27c89 8 146-16 146-99s-60-101-146-95v194" id="af"/><g id="g"><use transform="matrix(0.06172839506172839,0,0,0.06172839506172839,0,0)" xlink:href="#af"/><use transform="matrix(0.06172839506172839,0,0,0.06172839506172839,15.987654320987653,0)" xlink:href="#Z"/></g><path d="M135-143c-3-34-86-38-87 0 15 53 115 12 119 90S17 21 10-45l28-5c4 36 97 45 98 0-10-56-113-15-118-90-4-57 82-63 122-42 12 7 21 19 24 35" id="ag"/><g id="h"><use transform="matrix(0.06172839506172839,0,0,0.06172839506172839,0,0)" xlink:href="#W"/><use transform="matrix(0.06172839506172839,0,0,0.06172839506172839,4.876543209876543,0)" xlink:href="#N"/><use transform="matrix(0.06172839506172839,0,0,0.06172839506172839,17.22222222222222,0)" xlink:href="#ag"/><use transform="matrix(0.06172839506172839,0,0,0.06172839506172839,28.333333333333332,0)" xlink:href="#U"/><use transform="matrix(0.06172839506172839,0,0,0.06172839506172839,34.50617283950617,0)" xlink:href="#K"/><use transform="matrix(0.06172839506172839,0,0,0.06172839506172839,46.85185185185185,0)" xlink:href="#N"/><use transform="matrix(0.06172839506172839,0,0,0.06172839506172839,59.197530864197525,0)" xlink:href="#X"/><use transform="matrix(0.06172839506172839,0,0,0.06172839506172839,70.30864197530863,0)" xlink:href="#aa"/></g><path d="M266 0h-40l-56-210L115 0H75L2-248h35L96-30l15-64 43-154h32l59 218 59-218h35" id="ah"/><g id="i"><use transform="matrix(0.06172839506172839,0,0,0.06172839506172839,0,0)" xlink:href="#I"/><use transform="matrix(0.06172839506172839,0,0,0.06172839506172839,14.012345679012345,0)" xlink:href="#ah"/><use transform="matrix(0.06172839506172839,0,0,0.06172839506172839,34.938271604938265,0)" xlink:href="#ad"/></g><g id="j"><use transform="matrix(0.06172839506172839,0,0,0.06172839506172839,0,0)" xlink:href="#X"/><use transform="matrix(0.06172839506172839,0,0,0.06172839506172839,11.11111111111111,0)" xlink:href="#P"/><use transform="matrix(0.06172839506172839,0,0,0.06172839506172839,15.987654320987653,0)" xlink:href="#M"/><use transform="matrix(0.06172839506172839,0,0,0.06172839506172839,28.333333333333332,0)" xlink:href="#Q"/><use transform="matrix(0.06172839506172839,0,0,0.06172839506172839,40.67901234567901,0)" xlink:href="#R"/></g><path d="M108 0H70L1-190h34L89-25l56-165h34" id="ai"/><g id="k"><use transform="matrix(0.06172839506172839,0,0,0.06172839506172839,0,0)" xlink:href="#ai"/><use transform="matrix(0.06172839506172839,0,0,0.06172839506172839,11.11111111111111,0)" xlink:href="#W"/><use transform="matrix(0.06172839506172839,0,0,0.06172839506172839,15.987654320987653,0)" xlink:href="#T"/><use transform="matrix(0.06172839506172839,0,0,0.06172839506172839,23.333333333333332,0)" xlink:href="#U"/><use transform="matrix(0.06172839506172839,0,0,0.06172839506172839,29.50617283950617,0)" xlink:href="#Q"/><use transform="matrix(0.06172839506172839,0,0,0.06172839506172839,41.85185185185185,0)" xlink:href="#K"/><use transform="matrix(0.06172839506172839,0,0,0.06172839506172839,54.197530864197525,0)" xlink:href="#P"/></g><g id="l"><use transform="matrix(0.06172839506172839,0,0,0.06172839506172839,0,0)" xlink:href="#V"/><use transform="matrix(0.06172839506172839,0,0,0.06172839506172839,12.345679012345679,0)" xlink:href="#T"/><use transform="matrix(0.06172839506172839,0,0,0.06172839506172839,19.691358024691358,0)" xlink:href="#W"/><use transform="matrix(0.06172839506172839,0,0,0.06172839506172839,24.5679012345679,0)" xlink:href="#ai"/><use transform="matrix(0.06172839506172839,0,0,0.06172839506172839,35.67901234567901,0)" xlink:href="#K"/><use transform="matrix(0.06172839506172839,0,0,0.06172839506172839,48.02469135802469,0)" xlink:href="#U"/><use transform="matrix(0.06172839506172839,0,0,0.06172839506172839,54.19753086419753,0)" xlink:href="#aa"/></g><path d="M30 0v-248h187v28H63v79h144v27H63v87h162V0H30" id="aj"/><g id="m"><use transform="matrix(0.06172839506172839,0,0,0.06172839506172839,0,0)" xlink:href="#aj"/><use transform="matrix(0.06172839506172839,0,0,0.06172839506172839,14.814814814814813,0)" xlink:href="#P"/><use transform="matrix(0.06172839506172839,0,0,0.06172839506172839,19.691358024691354,0)" xlink:href="#K"/><use transform="matrix(0.06172839506172839,0,0,0.06172839506172839,32.03703703703703,0)" xlink:href="#ag"/><use transform="matrix(0.06172839506172839,0,0,0.06172839506172839,43.14814814814814,0)" xlink:href="#U"/><use transform="matrix(0.06172839506172839,0,0,0.06172839506172839,49.32098765432098,0)" xlink:href="#W"/><use transform="matrix(0.06172839506172839,0,0,0.06172839506172839,54.197530864197525,0)" xlink:href="#X"/></g><path d="M143 0L79-87 56-68V0H24v-261h32v163l83-92h37l-77 82L181 0h-38" id="ak"/><g id="n"><use transform="matrix(0.06172839506172839,0,0,0.06172839506172839,0,0)" xlink:href="#Z"/><use transform="matrix(0.06172839506172839,0,0,0.06172839506172839,14.814814814814813,0)" xlink:href="#aa"/><use transform="matrix(0.06172839506172839,0,0,0.06172839506172839,27.160493827160494,0)" xlink:href="#K"/><use transform="matrix(0.06172839506172839,0,0,0.06172839506172839,39.50617283950617,0)" xlink:href="#N"/><use transform="matrix(0.06172839506172839,0,0,0.06172839506172839,51.85185185185185,0)" xlink:href="#ag"/><use transform="matrix(0.06172839506172839,0,0,0.06172839506172839,62.96296296296296,0)" xlink:href="#U"/><use transform="matrix(0.06172839506172839,0,0,0.06172839506172839,69.1358024691358,0)" xlink:href="#K"/><use transform="matrix(0.06172839506172839,0,0,0.06172839506172839,81.48148148148148,0)" xlink:href="#P"/><use transform="matrix(0.06172839506172839,0,0,0.06172839506172839,86.35802469135803,0)" xlink:href="#ak"/></g><g id="o"><use transform="matrix(0.06172839506172839,0,0,0.06172839506172839,0,0)" xlink:href="#X"/><use transform="matrix(0.06172839506172839,0,0,0.06172839506172839,11.11111111111111,0)" xlink:href="#M"/><use transform="matrix(0.06172839506172839,0,0,0.06172839506172839,23.45679012345679,0)" xlink:href="#N"/><use transform="matrix(0.06172839506172839,0,0,0.06172839506172839,35.80246913580247,0)" xlink:href="#U"/><use transform="matrix(0.06172839506172839,0,0,0.06172839506172839,41.97530864197531,0)" xlink:href="#K"/><use transform="matrix(0.06172839506172839,0,0,0.06172839506172839,54.32098765432099,0)" xlink:href="#W"/><use transform="matrix(0.06172839506172839,0,0,0.06172839506172839,59.19753086419753,0)" xlink:href="#N"/><use transform="matrix(0.06172839506172839,0,0,0.06172839506172839,71.54320987654322,0)" xlink:href="#aa"/><use transform="matrix(0.06172839506172839,0,0,0.06172839506172839,83.8888888888889,0)" xlink:href="#T"/></g><path d="M101-251c82-7 93 87 43 132L82-64C71-53 59-42 53-27h129V0H18c2-99 128-94 128-182 0-28-16-43-45-43s-46 15-49 41l-32-3c6-41 34-60 81-64" id="al"/><g id="p"><use transform="matrix(0.06172839506172839,0,0,0.06172839506172839,0,0)" xlink:href="#aj"/><use transform="matrix(0.06172839506172839,0,0,0.06172839506172839,14.814814814814813,0)" xlink:href="#O"/><use transform="matrix(0.06172839506172839,0,0,0.06172839506172839,30.80246913580247,0)" xlink:href="#al"/></g><g id="q"><use transform="matrix(0.06172839506172839,0,0,0.06172839506172839,0,0)" xlink:href="#I"/><use transform="matrix(0.06172839506172839,0,0,0.06172839506172839,14.814814814814813,0)" xlink:href="#Q"/><use transform="matrix(0.06172839506172839,0,0,0.06172839506172839,27.160493827160494,0)" xlink:href="#U"/><use transform="matrix(0.06172839506172839,0,0,0.06172839506172839,33.333333333333336,0)" xlink:href="#M"/></g><path d="M177-190C167-65 218 103 67 71c-23-6-38-20-44-43l32-5c15 47 100 32 89-28v-30C133-14 115 1 83 1 29 1 15-40 15-95c0-56 16-97 71-98 29-1 48 16 59 35 1-10 0-23 2-32h30zM94-22c36 0 50-32 50-73 0-42-14-75-50-75-39 0-46 34-46 75s6 73 46 73" id="am"/><g id="r"><use transform="matrix(0.06172839506172839,0,0,0.06172839506172839,0,0)" xlink:href="#ad"/><use transform="matrix(0.06172839506172839,0,0,0.06172839506172839,14.814814814814813,0)" xlink:href="#X"/><use transform="matrix(0.06172839506172839,0,0,0.06172839506172839,25.925925925925924,0)" xlink:href="#K"/><use transform="matrix(0.06172839506172839,0,0,0.06172839506172839,38.2716049382716,0)" xlink:href="#P"/><use transform="matrix(0.06172839506172839,0,0,0.06172839506172839,43.148148148148145,0)" xlink:href="#W"/><use transform="matrix(0.06172839506172839,0,0,0.06172839506172839,48.02469135802469,0)" xlink:href="#N"/><use transform="matrix(0.06172839506172839,0,0,0.06172839506172839,60.37037037037037,0)" xlink:href="#am"/></g><g id="s"><use transform="matrix(0.08641975308641976,0,0,0.08641975308641976,0,0)" xlink:href="#Q"/><use transform="matrix(0.08641975308641976,0,0,0.08641975308641976,17.283950617283953,0)" xlink:href="#ag"/><use transform="matrix(0.08641975308641976,0,0,0.08641975308641976,32.839506172839506,0)" xlink:href="#aa"/><use transform="matrix(0.08641975308641976,0,0,0.08641975308641976,50.123456790123456,0)" xlink:href="#T"/><use transform="matrix(0.08641975308641976,0,0,0.08641975308641976,60.407407407407405,0)" xlink:href="#ag"/></g><path fill="#ef8d22" d="M212-179c-10-28-35-45-73-45-59 0-87 40-87 99 0 60 29 101 89 101 43 0 62-24 78-52l27 14C228-24 195 4 139 4 59 4 22-46 18-125c-6-104 99-153 187-111 19 9 31 26 39 46" id="an"/><path fill="#ef8d22" d="M24 0v-261h32V0H24" id="ao"/><path fill="#ef8d22" d="M100-194c62-1 85 37 85 99 1 63-27 99-86 99S16-35 15-95c0-66 28-99 85-99zM99-20c44 1 53-31 53-75 0-43-8-75-51-75s-53 32-53 75 10 74 51 75" id="ap"/><path fill="#ef8d22" d="M84 4C-5 8 30-112 23-190h32v120c0 31 7 50 39 49 72-2 45-101 50-169h31l1 190h-30c-1-10 1-25-2-33-11 22-28 36-60 37" id="aq"/><path fill="#ef8d22" d="M85-194c31 0 48 13 60 33l-1-100h32l1 261h-30c-2-10 0-23-3-31C134-8 116 4 85 4 32 4 16-35 15-94c0-66 23-100 70-100zm9 24c-40 0-46 34-46 75 0 40 6 74 45 74 42 0 51-32 51-76 0-42-9-74-50-73" id="ar"/><g id="t"><use transform="matrix(0.1111111111111111,0,0,0.1111111111111111,0,0)" xlink:href="#an"/><use transform="matrix(0.1111111111111111,0,0,0.1111111111111111,28.777777777777775,0)" xlink:href="#ao"/><use transform="matrix(0.1111111111111111,0,0,0.1111111111111111,37.55555555555555,0)" xlink:href="#ap"/><use transform="matrix(0.1111111111111111,0,0,0.1111111111111111,59.77777777777777,0)" xlink:href="#aq"/><use transform="matrix(0.1111111111111111,0,0,0.1111111111111111,82,0)" xlink:href="#ar"/></g><path fill="#ef8d22" d="M205 0l-28-72H64L36 0H1l101-248h38L239 0h-34zm-38-99l-47-123c-12 45-31 82-46 123h93" id="as"/><path fill="#ef8d22" d="M114-163C36-179 61-72 57 0H25l-1-190h30c1 12-1 29 2 39 6-27 23-49 58-41v29" id="at"/><path fill="#ef8d22" d="M96-169c-40 0-48 33-48 73s9 75 48 75c24 0 41-14 43-38l32 2c-6 37-31 61-74 61-59 0-76-41-82-99-10-93 101-131 147-64 4 7 5 14 7 22l-32 3c-4-21-16-35-41-35" id="au"/><path fill="#ef8d22" d="M106-169C34-169 62-67 57 0H25v-261h32l-1 103c12-21 28-36 61-36 89 0 53 116 60 194h-32v-121c2-32-8-49-39-48" id="av"/><path fill="#ef8d22" d="M24-231v-30h32v30H24zM24 0v-190h32V0H24" id="aw"/><path fill="#ef8d22" d="M59-47c-2 24 18 29 38 22v24C64 9 27 4 27-40v-127H5v-23h24l9-43h21v43h35v23H59v120" id="ax"/><path fill="#ef8d22" d="M100-194c63 0 86 42 84 106H49c0 40 14 67 53 68 26 1 43-12 49-29l28 8c-11 28-37 45-77 45C44 4 14-33 15-96c1-61 26-98 85-98zm52 81c6-60-76-77-97-28-3 7-6 17-6 28h103" id="ay"/><g id="u"><use transform="matrix(0.1111111111111111,0,0,0.1111111111111111,0,0)" xlink:href="#as"/><use transform="matrix(0.1111111111111111,0,0,0.1111111111111111,26.666666666666664,0)" xlink:href="#at"/><use transform="matrix(0.1111111111111111,0,0,0.1111111111111111,39.888888888888886,0)" xlink:href="#au"/><use transform="matrix(0.1111111111111111,0,0,0.1111111111111111,59.888888888888886,0)" xlink:href="#av"/><use transform="matrix(0.1111111111111111,0,0,0.1111111111111111,82.11111111111111,0)" xlink:href="#aw"/><use transform="matrix(0.1111111111111111,0,0,0.1111111111111111,90.88888888888889,0)" xlink:href="#ax"/><use transform="matrix(0.1111111111111111,0,0,0.1111111111111111,102,0)" xlink:href="#ay"/><use transform="matrix(0.1111111111111111,0,0,0.1111111111111111,124.22222222222224,0)" xlink:href="#au"/><use transform="matrix(0.1111111111111111,0,0,0.1111111111111111,144.22222222222223,0)" xlink:href="#ax"/><use transform="matrix(0.1111111111111111,0,0,0.1111111111111111,155.33333333333334,0)" xlink:href="#aq"/><use transform="matrix(0.1111111111111111,0,0,0.1111111111111111,177.55555555555557,0)" xlink:href="#at"/><use transform="matrix(0.1111111111111111,0,0,0.1111111111111111,190.7777777777778,0)" xlink:href="#ay"/></g><path d="M233-177c-1 41-23 64-60 70L243 0h-38l-65-103H63V0H30v-248c88 3 205-21 203 71zM63-129c60-2 137 13 137-47 0-61-80-42-137-45v92" id="az"/><g id="v"><use transform="matrix(0.06172839506172839,0,0,0.06172839506172839,0,0)" xlink:href="#az"/><use transform="matrix(0.06172839506172839,0,0,0.06172839506172839,15.987654320987653,0)" xlink:href="#af"/><use transform="matrix(0.06172839506172839,0,0,0.06172839506172839,31.975308641975307,0)" xlink:href="#ad"/></g><g id="w"><use transform="matrix(0.06172839506172839,0,0,0.06172839506172839,0,0)" xlink:href="#W"/><use transform="matrix(0.06172839506172839,0,0,0.06172839506172839,4.876543209876543,0)" xlink:href="#N"/><use transform="matrix(0.06172839506172839,0,0,0.06172839506172839,17.22222222222222,0)" xlink:href="#ag"/><use transform="matrix(0.06172839506172839,0,0,0.06172839506172839,28.333333333333332,0)" xlink:href="#U"/><use transform="matrix(0.06172839506172839,0,0,0.06172839506172839,34.50617283950617,0)" xlink:href="#K"/><use transform="matrix(0.06172839506172839,0,0,0.06172839506172839,46.85185185185185,0)" xlink:href="#N"/><use transform="matrix(0.06172839506172839,0,0,0.06172839506172839,59.197530864197525,0)" xlink:href="#X"/><use transform="matrix(0.06172839506172839,0,0,0.06172839506172839,70.30864197530863,0)" xlink:href="#aa"/></g><path d="M115-194c53 0 69 39 70 98 0 66-23 100-70 100C84 3 66-7 56-30L54 0H23l1-261h32v101c10-23 28-34 59-34zm-8 174c40 0 45-34 45-75 0-40-5-75-45-74-42 0-51 32-51 76 0 43 10 73 51 73" id="aA"/><g id="x"><use transform="matrix(0.06172839506172839,0,0,0.06172839506172839,0,0)" xlink:href="#ag"/><use transform="matrix(0.06172839506172839,0,0,0.06172839506172839,11.11111111111111,0)" xlink:href="#U"/><use transform="matrix(0.06172839506172839,0,0,0.06172839506172839,17.28395061728395,0)" xlink:href="#K"/><use transform="matrix(0.06172839506172839,0,0,0.06172839506172839,29.629629629629626,0)" xlink:href="#N"/><use transform="matrix(0.06172839506172839,0,0,0.06172839506172839,41.9753086419753,0)" xlink:href="#R"/><use transform="matrix(0.06172839506172839,0,0,0.06172839506172839,54.32098765432098,0)" xlink:href="#aA"/><use transform="matrix(0.06172839506172839,0,0,0.06172839506172839,66.66666666666666,0)" xlink:href="#ac"/></g><path d="M87 75C49 33 22-17 22-94c0-76 28-126 65-167h31c-38 41-64 92-64 168S80 34 118 75H87" id="aB"/><path d="M16-82v-28h88v28H16" id="aC"/><path d="M209 0H11v-25l151-195H24v-28h176v25L50-27h159V0" id="aD"/><path d="M33-261c38 41 65 92 65 168S71 34 33 75H2C39 34 66-17 66-93S39-220 2-261h31" id="aE"/><g id="y"><use transform="matrix(0.06172839506172839,0,0,0.06172839506172839,0,0)" xlink:href="#aB"/><use transform="matrix(0.06172839506172839,0,0,0.06172839506172839,7.345679012345679,0)" xlink:href="#J"/><use transform="matrix(0.06172839506172839,0,0,0.06172839506172839,25.80246913580247,0)" xlink:href="#Q"/><use transform="matrix(0.06172839506172839,0,0,0.06172839506172839,38.148148148148145,0)" xlink:href="#P"/><use transform="matrix(0.06172839506172839,0,0,0.06172839506172839,43.02469135802469,0)" xlink:href="#U"/><use transform="matrix(0.06172839506172839,0,0,0.06172839506172839,49.19753086419753,0)" xlink:href="#W"/><use transform="matrix(0.06172839506172839,0,0,0.06172839506172839,54.074074074074076,0)" xlink:href="#aC"/><use transform="matrix(0.06172839506172839,0,0,0.06172839506172839,61.41975308641975,0)" xlink:href="#I"/><use transform="matrix(0.06172839506172839,0,0,0.06172839506172839,76.23456790123457,0)" xlink:href="#aD"/><use transform="matrix(0.06172839506172839,0,0,0.06172839506172839,89.75308641975309,0)" xlink:href="#aE"/></g><g id="z"><use transform="matrix(0.06172839506172839,0,0,0.06172839506172839,0,0)" xlink:href="#I"/><use transform="matrix(0.06172839506172839,0,0,0.06172839506172839,14.814814814814813,0)" xlink:href="#Q"/><use transform="matrix(0.06172839506172839,0,0,0.06172839506172839,27.160493827160494,0)" xlink:href="#U"/><use transform="matrix(0.06172839506172839,0,0,0.06172839506172839,33.333333333333336,0)" xlink:href="#M"/></g><g id="A"><use transform="matrix(0.06172839506172839,0,0,0.06172839506172839,0,0)" xlink:href="#ad"/><use transform="matrix(0.06172839506172839,0,0,0.06172839506172839,14.814814814814813,0)" xlink:href="#X"/><use transform="matrix(0.06172839506172839,0,0,0.06172839506172839,25.925925925925924,0)" xlink:href="#K"/><use transform="matrix(0.06172839506172839,0,0,0.06172839506172839,38.2716049382716,0)" xlink:href="#P"/><use transform="matrix(0.06172839506172839,0,0,0.06172839506172839,43.148148148148145,0)" xlink:href="#W"/><use transform="matrix(0.06172839506172839,0,0,0.06172839506172839,48.02469135802469,0)" xlink:href="#N"/><use transform="matrix(0.06172839506172839,0,0,0.06172839506172839,60.37037037037037,0)" xlink:href="#am"/></g><g id="B"><use transform="matrix(0.06172839506172839,0,0,0.06172839506172839,0,0)" xlink:href="#am"/><use transform="matrix(0.06172839506172839,0,0,0.06172839506172839,12.345679012345679,0)" xlink:href="#T"/><use transform="matrix(0.06172839506172839,0,0,0.06172839506172839,19.691358024691358,0)" xlink:href="#M"/><use transform="matrix(0.06172839506172839,0,0,0.06172839506172839,32.03703703703704,0)" xlink:href="#Q"/><use transform="matrix(0.06172839506172839,0,0,0.06172839506172839,44.382716049382715,0)" xlink:href="#V"/></g><g id="C"><use transform="matrix(0.06172839506172839,0,0,0.06172839506172839,0,0)" xlink:href="#I"/><use transform="matrix(0.06172839506172839,0,0,0.06172839506172839,14.382716049382715,0)" xlink:href="#ai"/><use transform="matrix(0.06172839506172839,0,0,0.06172839506172839,25.493827160493826,0)" xlink:href="#K"/><use transform="matrix(0.06172839506172839,0,0,0.06172839506172839,37.839506172839506,0)" xlink:href="#W"/><use transform="matrix(0.06172839506172839,0,0,0.06172839506172839,42.71604938271605,0)" xlink:href="#P"/><use transform="matrix(0.06172839506172839,0,0,0.06172839506172839,47.592592592592595,0)" xlink:href="#K"/><use transform="matrix(0.06172839506172839,0,0,0.06172839506172839,59.93827160493827,0)" xlink:href="#aA"/><use transform="matrix(0.06172839506172839,0,0,0.06172839506172839,72.28395061728395,0)" xlink:href="#W"/><use transform="matrix(0.06172839506172839,0,0,0.06172839506172839,77.1604938271605,0)" xlink:href="#P"/><use transform="matrix(0.06172839506172839,0,0,0.06172839506172839,82.03703703703704,0)" xlink:href="#W"/><use transform="matrix(0.06172839506172839,0,0,0.06172839506172839,86.91358024691358,0)" xlink:href="#U"/><use transform="matrix(0.06172839506172839,0,0,0.06172839506172839,93.08641975308642,0)" xlink:href="#ac"/></g><g id="D"><use transform="matrix(0.06172839506172839,0,0,0.06172839506172839,0,0)" xlink:href="#aD"/><use transform="matrix(0.06172839506172839,0,0,0.06172839506172839,13.518518518518517,0)" xlink:href="#M"/><use transform="matrix(0.06172839506172839,0,0,0.06172839506172839,25.864197530864196,0)" xlink:href="#N"/><use transform="matrix(0.06172839506172839,0,0,0.06172839506172839,38.20987654320987,0)" xlink:href="#aa"/></g><g id="E"><use transform="matrix(0.06172839506172839,0,0,0.06172839506172839,0,0)" xlink:href="#aa"/><use transform="matrix(0.06172839506172839,0,0,0.06172839506172839,12.345679012345679,0)" xlink:href="#N"/><use transform="matrix(0.06172839506172839,0,0,0.06172839506172839,24.691358024691358,0)" xlink:href="#R"/><use transform="matrix(0.06172839506172839,0,0,0.06172839506172839,37.03703703703704,0)" xlink:href="#V"/><use transform="matrix(0.06172839506172839,0,0,0.06172839506172839,49.382716049382715,0)" xlink:href="#M"/><use transform="matrix(0.06172839506172839,0,0,0.06172839506172839,61.72839506172839,0)" xlink:href="#W"/><use transform="matrix(0.06172839506172839,0,0,0.06172839506172839,66.60493827160494,0)" xlink:href="#N"/><use transform="matrix(0.06172839506172839,0,0,0.06172839506172839,78.95061728395062,0)" xlink:href="#U"/><use transform="matrix(0.06172839506172839,0,0,0.06172839506172839,85.12345679012346,0)" xlink:href="#ag"/></g><g id="F"><use transform="matrix(0.06172839506172839,0,0,0.06172839506172839,0,0)" xlink:href="#aA"/><use transform="matrix(0.06172839506172839,0,0,0.06172839506172839,12.345679012345679,0)" xlink:href="#Q"/><use transform="matrix(0.06172839506172839,0,0,0.06172839506172839,24.691358024691358,0)" xlink:href="#X"/><use transform="matrix(0.06172839506172839,0,0,0.06172839506172839,35.80246913580247,0)" xlink:href="#ak"/><use transform="matrix(0.06172839506172839,0,0,0.06172839506172839,46.91358024691358,0)" xlink:href="#aa"/><use transform="matrix(0.06172839506172839,0,0,0.06172839506172839,59.25925925925926,0)" xlink:href="#U"/></g><path d="M206 0h-36l-40-164L89 0H53L-1-190h32L70-26l43-164h34l41 164 42-164h31" id="aF"/><path d="M106-169C34-169 62-67 57 0H25v-261h32l-1 103c12-21 28-36 61-36 89 0 53 116 60 194h-32v-121c2-32-8-49-39-48" id="aG"/><g id="G"><use transform="matrix(0.06172839506172839,0,0,0.06172839506172839,0,0)" xlink:href="#aF"/><use transform="matrix(0.06172839506172839,0,0,0.06172839506172839,15.987654320987653,0)" xlink:href="#W"/><use transform="matrix(0.06172839506172839,0,0,0.06172839506172839,20.864197530864196,0)" xlink:href="#U"/><use transform="matrix(0.06172839506172839,0,0,0.06172839506172839,27.037037037037035,0)" xlink:href="#aG"/></g><path d="M24-231v-30h32v30H24zM-9 49c24 4 33-6 33-30v-209h32V24c2 40-23 58-65 49V49" id="aH"/><g id="H"><use transform="matrix(0.06172839506172839,0,0,0.06172839506172839,0,0)" xlink:href="#M"/><use transform="matrix(0.06172839506172839,0,0,0.06172839506172839,12.345679012345679,0)" xlink:href="#aA"/><use transform="matrix(0.06172839506172839,0,0,0.06172839506172839,24.691358024691358,0)" xlink:href="#aH"/><use transform="matrix(0.06172839506172839,0,0,0.06172839506172839,29.5679012345679,0)" xlink:href="#aa"/><use transform="matrix(0.06172839506172839,0,0,0.06172839506172839,41.913580246913575,0)" xlink:href="#X"/><use transform="matrix(0.06172839506172839,0,0,0.06172839506172839,53.02469135802468,0)" xlink:href="#U"/><use transform="matrix(0.06172839506172839,0,0,0.06172839506172839,59.197530864197525,0)" xlink:href="#ag"/></g></defs></g></svg>