<svg xmlns="http://www.w3.org/2000/svg" xmlns:xlink="http://www.w3.org/1999/xlink" xmlns:lucid="lucid" width="1760" height="1360"><g transform="translate(0 0)" lucid:page-tab-id="lgQujAvtVM61"><path d="M460 125c0-2.76 2.24-5 5-5h810c2.76 0 5 2.24 5 5v110c0 2.76-2.24 5-5 5H465c-2.76 0-5-2.24-5-5z" stroke="#fff" stroke-width="2" fill="#fff"/><use xlink:href="#a" transform="matrix(1,0,0,1,480,120) translate(214.77777777777777 68)"/><use xlink:href="#b" transform="matrix(1,0,0,1,480,120) translate(327.8888888888889 68)"/><use xlink:href="#c" transform="matrix(1,0,0,1,480,120) translate(483.3333333333333 68)"/><path d="M52 429c0-2.76 2.24-5 5-5h150c2.76 0 5 2.24 5 5v110c0 2.76-2.24 5-5 5H57c-2.76 0-5-2.24-5-5z" stroke="#fb8c00" stroke-width="2" fill="#fb8c00"/><use xlink:href="#d" transform="matrix(1,0,0,1,72,424) translate(2.3333333333333286 65.33333333333334)"/><path d="M648 850c0 7.73-31.34 14-70 14s-70-6.27-70-14V738c0-7.73 31.34-14 70-14s70 6.27 70 14z" stroke="#fff" stroke-width="2" fill="#fb8c00"/><path d="M648 738c0 7.73-31.34 14-70 14s-70-6.27-70-14" stroke="#fff" stroke-width="2" fill="none"/><use xlink:href="#e" transform="matrix(1,0,0,1,518,752) translate(3 54.333333333333336)"/><path d="M668 374c0 27.6-62.68 50-140 50s-140-22.4-140-50 62.68-50 140-50 140 22.4 140 50z" stroke="#fff" stroke-width="2" fill="#fb8c00"/><use xlink:href="#f" transform="matrix(1,0,0,1,388,324) translate(68.48148148148147 39.333333333333336)"/><use xlink:href="#g" transform="matrix(1,0,0,1,388,324) translate(138.92592592592592 39.333333333333336)"/><use xlink:href="#h" transform="matrix(1,0,0,1,388,324) translate(193.74074074074076 39.333333333333336)"/><use xlink:href="#i" transform="matrix(1,0,0,1,388,324) translate(31.962962962962962 71.33333333333334)"/><use xlink:href="#j" transform="matrix(1,0,0,1,388,324) translate(142.92592592592592 71.33333333333334)"/><path d="M231.12 482.24l.75-.15 3.3-.78 3.2-.9 3.14-1 3.08-1.16 3.04-1.27 3.02-1.44 3.03-1.58 3.06-1.77 3.1-1.96 3.2-2.22 3.33-2.53 3.53-2.93 3.8-3.43 4.26-4.2 5.08-5.4 7.1-8.27 26.82-32.8 5.08-5.42 4.26-4.2 3.8-3.42 3.54-2.92 3.33-2.52 3.2-2.22 3.1-1.97 3.06-1.78 3.03-1.58 3.02-1.43 3.04-1.26 3.07-1.15 3.12-1.02 3.2-.9 3.3-.77.76-.14" stroke="#fb8c00" stroke-width="2" fill="none"/><path d="M230.87 486.92l-14.65-3.23 13.75-6z" fill="#fb8c00"/><path d="M232 488.2l-19-4.2 17.83-7.78zm-12.56-4.83l10.3 2.27-.63-6.48zM383.78 374.3l-13.75 6-.9-9.22z" fill="#fb8c00"/><path d="M387 374l-17.83 7.78L368 369.8zm-16.1 4.84l9.66-4.2-10.3-2.28zM567.04 616.3l3.37 14.4 2.75 14.36 2.27 15.38 1.8 17.3 1.28 20.34.13 6.67-2 .04-.13-6.64-1.26-20.24-1.8-17.23-2.26-15.3-2.72-14.3-3.35-14.27-10-31.95h2.08zM529.5 449.84l1.26 20.24 1.8 17.23 2.26 15.3 2.72 14.3 3.36 14.28 4.6 16.4 4.9 15.7h-2.08l-4.74-15.12-4.62-16.48-3.37-14.37-2.75-14.36-2.27-15.38-1.8-17.3-1.28-20.34-.13-6.66 2-.04zM533 442.4l-9.28.2 4.35-14.36z" fill="#fb8c00"/><path d="M534.38 443.38l-12.02.24L528 425zm-9.3-1.8l6.5-.14-3.45-9.96zM577.93 719.76L573 705.6l9.28-.2z" fill="#fb8c00"/><path d="M578 723l-6.38-18.38 12.02-.24zm-3.6-16.43l3.47 9.96 3.06-10.1z" fill="#fb8c00"/><use xlink:href="#k" transform="matrix(1,0,0,1,440.3504022069343,563.2761430453396) translate(0 14.4)"/><use xlink:href="#l" transform="matrix(1,0,0,1,440.3504022069343,563.2761430453396) translate(62.95 14.4)"/><use xlink:href="#m" transform="matrix(1,0,0,1,440.3504022069343,563.2761430453396) translate(138.9 14.4)"/><use xlink:href="#n" transform="matrix(1,0,0,1,440.3504022069343,563.2761430453396) translate(173.9 14.4)"/><path d="M1068 474c0 27.6-35.82 50-80 50s-80-22.4-80-50 35.82-50 80-50 80 22.4 80 50z" stroke="#fff" stroke-width="2" fill="#fb8c00"/><use xlink:href="#o" transform="matrix(1,0,0,1,907.9999999999999,424) translate(12.666666666666657 55.333333333333336)"/><use xlink:href="#p" transform="matrix(1,0,0,1,907.9999999999999,424) translate(67.48148148148148 55.333333333333336)"/><use xlink:href="#q" transform="matrix(1,0,0,1,907.9999999999999,424) translate(97.11111111111111 55.333333333333336)"/><path d="M1308 308c0 22.1-31.34 40-70 40s-70-17.9-70-40 31.34-40 70-40 70 17.9 70 40z" stroke="#fff" stroke-width="2" fill="#fb8c00"/><use xlink:href="#r" transform="matrix(1,0,0,1,1168,268) translate(16.740740740740733 45.333333333333336)"/><use xlink:href="#s" transform="matrix(1,0,0,1,1168,268) translate(70.07407407407408 45.333333333333336)"/><path d="M1428 957c0-2.76 2.24-5 5-5h150c2.76 0 5 2.24 5 5v110c0 2.76-2.24 5-5 5h-150c-2.76 0-5-2.24-5-5z" stroke="#fff" stroke-width="2" fill="#fb8c00"/><path d="M1444 952v120m128-120v120" stroke="#fff" stroke-width="2" fill="none"/><use xlink:href="#t" transform="matrix(1,0,0,1,1448,952) translate(11.824074074074062 50.22222222222222)"/><use xlink:href="#u" transform="matrix(1,0,0,1,1448,952) translate(15.898148148148145 79.55555555555556)"/><path d="M819.16 336.67l-3 1.03-2.12.83-1.57.7-1.2.58-.9.52-.73.43-.57.38-.48.34-1.55 1.14-3.6 2.52-4 2.54-4.43 2.55-4.93 2.58-5.5 2.6-6.15 2.57-6.92 2.57-7.8 2.54-8.86 2.46-10.05 2.35-11.45 2.18-13.07 1.93-14.92 1.56-17.03 1.06-19.33.4-.04-2 19.3-.4 16.93-1.05 14.85-1.56 13-1.92 11.36-2.16 9.98-2.34 8.76-2.44 7.73-2.5 6.84-2.55 6.1-2.56 5.4-2.55 4.85-2.54 4.36-2.5 3.93-2.5 3.56-2.47 1.5-1.14.53-.38.64-.42.8-.48 1-.54 1.25-.62 1.65-.73 2.2-.88 1.1-.38h6.7zm329.62-27.46l-1.5.03-148.02 6.2-47.72 3.76v-2.02l47.6-3.76 148.08-6.2h1.53z" fill="#fb8c00"/><path d="M669.02 375l-1.05.02v-.26l.03-.76v-.38l-.03-.6 1-.02zM1163.76 308.04l-14.2 4.8-.1-9.27z" fill="#fb8c00"/><path d="M1167 308l-18.43 6.22-.14-12.02zm-16.46 3.45l10-3.38-10.08-3.14z" fill="#fb8c00"/><use xlink:href="#v" transform="matrix(1,0,0,1,810.6926866537506,313.84320680844644) translate(0 14.4)"/><use xlink:href="#w" transform="matrix(1,0,0,1,810.6926866537506,313.84320680844644) translate(66.95 14.4)"/><path d="M813.23 442.92l7.03 4.9 6.16 3.9 5.7 3.3 5.48 2.86 5.35 2.52 5.34 2.25 5.38 2 5.5 1.8 5.7 1.58 5.94 1.4 6.25 1.2 6.64.96 5.2.54-.2 2-5.24-.56-6.72-1-6.34-1.2-6.02-1.4-5.77-1.62-5.58-1.82-5.47-2.03-5.4-2.27-5.44-2.56-5.54-2.9-5.78-3.33-6.23-3.96-7.12-4.96-12.17-9.86h3.18zm-135.7-69.74l7.8.48 7.2.76 6.73 1 6.34 1.2 6.02 1.4 5.77 1.62 5.58 1.82 5.47 2.03 5.4 2.27 5.44 2.56 5.54 2.9 5.78 3.33 6.23 3.96 7.1 4.95 9.26 7.05 3.16 2.54h-3.18l-1.2-.97-9.2-7-7.04-4.9-6.16-3.93-5.7-3.3-5.48-2.85-5.35-2.52-5.34-2.25-5.38-2-5.5-1.8-5.7-1.58-5.94-1.4-6.25-1.2-6.64-.96-7.14-.74-7.7-.5-8.48-.16.04-2z" fill="#fb8c00"/><path d="M669.04 373l-.08 2-1-.04.02-.2.02-.76v-.38l-.03-.66zM903.77 473.85l-14.47 3.95.44-9.26z" fill="#fb8c00"/><path d="M907 474l-18.77 5.12.57-12zm-16.64 2.47l10.18-2.78-9.87-3.74z" fill="#fb8c00"/><use xlink:href="#v" transform="matrix(1,0,0,1,717.6833355835411,413.06495395238414) translate(0 14.4)"/><use xlink:href="#w" transform="matrix(1,0,0,1,717.6833355835411,413.06495395238414) translate(66.95 14.4)"/><path d="M989 525.03l-.1 4.47-.25 4.1-.4 3.78-.5 3.48-.62 3.22-.7 3-.8 2.8-.84 2.63-.93 2.48-.98 2.34-1.05 2.22-1.1 2.1-1.16 2-1.23 1.92-1.27 1.84-1.34 1.76-1.4 1.7-1.47 1.62-1.55 1.57-1.62 1.52-1.7 1.47-1.8 1.42-1.88 1.38-2 1.32-2.13 1.3-2.25 1.23-2.4 1.18-2.57 1.14-2.75 1.1-2.96 1.02-3.2.96-3.45.9-3.75.78-4.1.7-4.46.56-4.9.4-5.43.23h-5.97l-6.64-.28-7.4-.63-8.22-1.05-9.17-1.55-10.2-2.18-11.32-2.92-12.5-3.78-13.66-4.76-9.3-3.7h5.42l4.58 1.82 13.58 4.74 12.42 3.75 11.24 2.9L881 587.2l9.07 1.54 8.14 1.04 7.3.6 6.57.3h5.9l5.33-.23 4.83-.4 4.4-.56 4-.68 3.66-.78 3.37-.87 3.1-.93 2.88-1 2.68-1.06 2.5-1.1 2.3-1.17 2.2-1.18 2.04-1.24 1.94-1.3 1.83-1.3 1.73-1.38 1.64-1.42 1.55-1.46 1.48-1.5 1.42-1.58 1.34-1.63 1.28-1.68 1.23-1.77 1.18-1.84 1.1-1.92 1.07-2.03 1-2.14.96-2.25.9-2.4.83-2.55.76-2.72.67-2.9.6-3.15.5-3.4.4-3.68.24-4.03.1-4.44zm-345.03-99.88l3.93 6.8 4.58 7.2 5.34 7.68 6.18 8.15 7.16 8.64 8.23 9.14 9.42 9.62 10.7 10.05 12.04 10.38 13.33 10.57 14.5 10.55 15.48 10.28 16.1 9.75 11.46 6.3h-4.16l-8.3-4.57-16.17-9.8-15.53-10.32-14.6-10.6-13.4-10.6-12.08-10.44-10.78-10.1-9.5-9.7-8.28-9.2-7.2-8.7-6.24-8.2-5.38-7.75-4.63-7.3-3.98-6.86-.85-1.62 1.77-.92z" fill="#fb8c00"/><path d="M988 524h1.08l-.08 1.08-2-.15.08-.96zM646.14 421.4l-8.4 3.93-1.86-14.88z" fill="#fb8c00"/><path d="M647.82 421.7l-10.9 5.12-2.4-19.3zm-9.25 2.14l5.9-2.77-7.2-7.7z" fill="#fb8c00"/><use xlink:href="#x" transform="matrix(1,0,0,1,710.0351412002871,550.2485859244939) translate(0 14.4)"/><use xlink:href="#y" transform="matrix(1,0,0,1,710.0351412002871,550.2485859244939) translate(65.9 14.4)"/><use xlink:href="#z" transform="matrix(1,0,0,1,710.0351412002871,550.2485859244939) translate(111.80000000000001 14.4)"/><path d="M1220 449c0-2.76 2.24-5 5-5h214c2.76 0 5 2.24 5 5v174c0 2.76-2.24 5-5 5h-214c-2.76 0-5-2.24-5-5zM1444 484h-224" stroke="#fff" stroke-width="2" fill="#fb8c00"/><path d="M1408 453c0-2.76 2.24-5 5-5h22c2.76 0 5 2.24 5 5v22c0 2.76-2.24 5-5 5h-22c-2.76 0-5-2.24-5-5zM1416 456l16 16m0-16l-16 16" stroke="#fff" stroke-width="2" fill="none"/><use xlink:href="#A" transform="matrix(1,0,0,1,1240,444) translate(41.55 23.6)"/><use xlink:href="#B" transform="matrix(1,0,0,1,1240,444) translate(80.45 23.6)"/><use xlink:href="#C" transform="matrix(1,0,0,1,1230,502.4) translate(41.407407407407405 32.666666666666664)"/><use xlink:href="#D" transform="matrix(1,0,0,1,1230,502.4) translate(99.03703703703704 32.666666666666664)"/><use xlink:href="#E" transform="matrix(1,0,0,1,1230,502.4) translate(28.635802469135797 61.11111111111111)"/><use xlink:href="#F" transform="matrix(1,0,0,1,1230,502.4) translate(132.21604938271605 61.11111111111111)"/><use xlink:href="#G" transform="matrix(1,0,0,1,1230,502.4) translate(10.796296296296305 87.77777777777777)"/><use xlink:href="#H" transform="matrix(1,0,0,1,1230,502.4) translate(76.16666666666667 87.77777777777777)"/><use xlink:href="#I" transform="matrix(1,0,0,1,1230,502.4) translate(102.03086419753086 87.77777777777777)"/><path d="M1069 474l5.23.1 4.8.3 4.42.47 4.14.6 3.9.76 3.7.87 3.56 1 3.44 1.1 3.37 1.26 3.34 1.4 3.35 1.58 3.4 1.78 3.53 2.03 3.77 2.4 4.24 2.95 5.23 3.98 28.38 23.38 4.25 2.94 3.77 2.4 3.53 2.04 3.4 1.78 3.34 1.57 3.33 1.4 3.37 1.25 3.44 1.12 3.56 1 3.7.86 3.9.74.44.07" stroke="#fb8c00" stroke-width="2" fill="none"/><path d="M1069.07 473l-.13 2-.97-.06.03-.94v-.26l-.03-.8zM1215.77 538.3l-14.58 3.5.7-9.23z" fill="#fb8c00"/><path d="M1219 538.56l-18.9 4.55.92-11.98zm-16.7 1.96l10.25-2.47-9.75-4.03z" fill="#fb8c00"/><path d="M1708 762c0 38.66-67.16 70-150 70s-150-31.34-150-70 67.16-70 150-70 150 31.34 150 70z" stroke="#fff" stroke-width="2" fill="#fb8c00"/><use xlink:href="#J" transform="matrix(1,0,0,1,1408,692) translate(36.07407407407406 59.333333333333336)"/><use xlink:href="#K" transform="matrix(1,0,0,1,1408,692) translate(127.77777777777776 59.333333333333336)"/><use xlink:href="#L" transform="matrix(1,0,0,1,1408,692) translate(232.8888888888889 59.333333333333336)"/><use xlink:href="#M" transform="matrix(1,0,0,1,1408,692) translate(11.59259259259261 91.33333333333334)"/><use xlink:href="#N" transform="matrix(1,0,0,1,1408,692) translate(131.44444444444446 91.33333333333334)"/><use xlink:href="#O" transform="matrix(1,0,0,1,1408,692) translate(189.22222222222223 91.33333333333334)"/><path d="M1309 308l14.03.3 14.38.9 14.75 1.55 15.08 2.23 15.4 2.94 15.64 3.67 15.85 4.42 16 5.2 16.07 5.98 16.02 6.74 15.9 7.48 15.67 8.2 15.3 8.84 14.9 9.44 14.3 9.95 13.7 10.4 13 10.75 12.24 11 11.44 11.2 10.63 11.33 9.8 11.36 9 11.34 8.22 11.3 7.43 11.18 6.7 11.06 6 10.9 5.34 10.77 4.7 10.57 4.13 10.4 3.56 10.24 3.03 10.07 2.54 9.9 2.08 9.76 1.62 9.6 1.2 9.5.8 9.37.38 9.28v9.2l-.38 9.12-.76 9.08-1.14 9.04-1.52 9.02-1.92 9.02-2.32 9.04-2.75 9.08-.67 1.94" stroke="#fb8c00" stroke-width="2" fill="none"/><path d="M1309.03 307l-.05 2-1-.02.02-.98-.04-1.03zM1668.46 694.02l-9.37 11.7.68-14.97z" fill="#fb8c00"/><path d="M1670.1 693.57l-12.15 15.2.9-19.45zm-9.87 9.13l6.6-8.23-6.1-2.3z" fill="#fb8c00"/><path d="M1445 536l6.36.13 6.3.4 6.22.65 6.18.92 6.1 1.16 6.04 1.42 5.96 1.66 5.88 1.9 5.8 2.16 5.68 2.4 5.6 2.63 5.46 2.86 5.34 3.07 5.2 3.3 5.07 3.53 4.9 3.72 4.73 3.9 4.55 4.1 4.37 4.3 4.17 4.43 3.96 4.6 3.75 4.72 3.53 4.86 3.3 4.98 3.1 5.1 2.84 5.2 2.62 5.26 2.38 5.35 2.15 5.43 1.9 5.5 1.7 5.54 1.42 5.6 1.2 5.65.97 5.7.73 5.74.48 5.8.2 4.84" stroke="#fb8c00" stroke-width="2" fill="none"/><path d="M1445.05 535l-.1 2-.95-.05v-2zM1595.76 675.38l-5.14 14.1-4.12-14.43z" fill="#fb8c00"/><path d="M1597.17 674.43l-6.67 18.28-5.34-18.7zm-6.43 11.8l3.6-9.9-6.5-.23zM900.67 701.37l-25.3 14.67-19.12 10-16.96 8-16.07 6.75-15.8 5.86-15.9 5.17-16.36 4.57-17.1 4-18.15 3.47-19.54 2.88-21.3 2.23-23.6 1.48-8.22.17-.04-2 8.2-.17L698.9 767l21.23-2.24 19.45-2.86 18.07-3.45 17.03-4 16.28-4.53 15.83-5.15 15.7-5.84 15.97-6.72 16.9-7.94 19.02-9.97 25.25-14.65 15.02-9.2h3.82zm300.12-111.33l-8.2.17-23.5 1.48-21.23 2.22-19.45 2.87-18.07 3.44-17.03 4-16.28 4.55-15.83 5.14-15.7 5.83-15.97 6.73-16.9 7.95-19 9.97-39.92 24.47h-3.8l42.73-26.2 19.12-10.02 16.96-8 16.07-6.75 15.8-5.87 15.9-5.17 16.36-4.56 17.1-4 18.15-3.47 19.54-2.88 21.3-2.23 23.6-1.5 8.23-.16zM666.6 774.28l-14.36-4.35L666.4 765z" fill="#fb8c00"/><path d="M667.63 775.63L649 770l18.38-6.4zm-12.15-5.76l10.1 3.05-.14-6.52zM1215.76 588.73l-14.16 4.93-.2-9.27z" fill="#fb8c00"/><path d="M1219 588.67l-18.37 6.4-.25-12.03zm-16.43 3.6l9.96-3.47-10.1-3.05z" fill="#fb8c00"/><use xlink:href="#P" transform="matrix(1,0,0,1,850.8149232774261,668.8435013584782) translate(0 14.4)"/><use xlink:href="#Q" transform="matrix(1,0,0,1,850.8149232774261,668.8435013584782) translate(83.9 14.4)"/><use xlink:href="#R" transform="matrix(1,0,0,1,850.8149232774261,668.8435013584782) translate(122.80000000000001 14.4)"/><path d="M492 1029c0-2.76 2.24-5 5-5h242c2.76 0 5 2.24 5 5v174c0 2.76-2.24 5-5 5H497c-2.76 0-5-2.24-5-5zM744 1064H492" stroke="#fff" stroke-width="2" fill="#fb8c00"/><path d="M708 1033c0-2.76 2.24-5 5-5h22c2.76 0 5 2.24 5 5v22c0 2.76-2.24 5-5 5h-22c-2.76 0-5-2.24-5-5zM716 1036l16 16m0-16l-16 16" stroke="#fff" stroke-width="2" fill="none"/><use xlink:href="#S" transform="matrix(1,0,0,1,512,1024) translate(75 23.6)"/><use xlink:href="#T" transform="matrix(1,0,0,1,502,1082.4) translate(2.9259259259259096 27.33333333333333)"/><use xlink:href="#U" transform="matrix(1,0,0,1,502,1082.4) translate(78.33333333333333 27.33333333333333)"/><use xlink:href="#V" transform="matrix(1,0,0,1,502,1082.4) translate(47.888888888888886 59.33333333333333)"/><use xlink:href="#W" transform="matrix(1,0,0,1,502,1082.4) translate(99.74074074074075 59.33333333333333)"/><use xlink:href="#X" transform="matrix(1,0,0,1,502,1082.4) translate(50.14814814814815 91.33333333333334)"/><path d="M1154.1 1015.12c2.15-1.72 5.65-1.72 7.8 0l82.2 65.76c2.15 1.72 2.15 4.52 0 6.24l-82.2 65.76c-2.15 1.72-5.65 1.72-7.8 0l-82.2-65.76c-2.15-1.72-2.15-4.52 0-6.24z" stroke="#fb8c00" stroke-width="2" fill="#fb8c00"/><g><use xlink:href="#Y" transform="matrix(1,0,0,1,1113,1048) translate(39.44444444444444 16)"/><use xlink:href="#Z" transform="matrix(1,0,0,1,1113,1048) translate(5.583333333333329 40)"/><use xlink:href="#aa" transform="matrix(1,0,0,1,1113,1048) translate(-0.5 64)"/></g><path d="M1427 1012l-7.44-.16-8.76-.56-10.58-1.12-13.24-1.96-17.6-3.38-27.12-6.42-105.24-28.06-13-2.5-9.2-1.36-7.03-.75-5.62-.36-4.6-.1-3.87.08-3.3.2-2.86.3-2.5.38-2.23.42-1.98.47-1.8.5-1.63.53-1.5.55-1.36.57-1.27.6-1.17.6-1.1.64-1.02.66-.96.67-.9.7-.86.7-.82.73-.77.76-.74.78-.7.82-.67.85-.65.88-.6.93-.6.98-.56 1.03-.54 1.07-.5 1.16-.5 1.23-.46 1.32-.43 1.42-.38 1.54-.36 1.67-.3 1.84-.24 1.8" stroke="#fb8c00" stroke-width="2" fill="none"/><path d="M1428 1011.04v2l-1.05-.04.1-2zM1157.9 1009.6l-5.1-14.1 9.28-.3z" fill="#fb8c00"/><path d="M1158 1012.84l-6.6-18.3 12.02-.4zm-3.78-16.4l3.57 9.93 2.93-10.13z" fill="#fb8c00"/><path d="M1558 833l-.1 4.22-.23 3.86-.38 3.56-.5 3.32-.6 3.13-.72 2.97-.8 2.85-.9 2.76-1.03 2.7-1.14 2.68-1.27 2.7-1.46 2.75-1.7 2.9-2 3.1-2.53 3.6-3.7 4.78-15.58 19.03-2.53 3.6-2 3.1-1.7 2.9-1.46 2.74-1.28 2.7-1.15 2.68-1.02 2.7-.9 2.76-.8 2.85-.72 2.96" stroke="#fb8c00" stroke-width="2" fill="none"/><path d="M1558 832h1.08l-.08 1.08-2-.16.08-.94zM1514.36 934.05l-6.04 13.73-3.2-14.66z" fill="#fb8c00"/><path d="M1515.83 933.2L1508 951l-4.14-19zm-7.18 11.36l4.24-9.65-6.5-.64zM892.6 1104.1l-74.85 9.96-36.47 2.23-18.03.34-.04-2 18-.35 36.36-2.23 75.04-10zm176.9-19.1l-42.93 2.6-45.9 4.78-58.72 7.8v-2l58.5-7.8 45.96-4.76 43-2.62z" fill="#fb8c00"/><path d="M1070.4 1083.05l.1 1.9-1 .05-.1-2 1.1-.07zM762.6 1120.3l-14.36-4.36 14.17-4.92z" fill="#fb8c00"/><path d="M763.62 1121.65L745 1116l18.38-6.38zm-12.15-5.78l10.1 3.06-.14-6.5z" fill="#fb8c00"/><g><use xlink:href="#ab" transform="matrix(1,0,0,1,892.601915159376,1090.338575853317) translate(0 14.4)"/></g><path d="M1531.2 1091.32l-.22 1-.62 2.4-.67 2.2-.73 2.04-.74 1.9-.8 1.73-.8 1.63-.84 1.53-.9 1.44-.9 1.36-.94 1.3-.97 1.2-1.03 1.18-1.05 1.12-1.1 1.07-1.14 1.02-1.2 1-1.25.94-1.32.9-1.4.9-1.47.83-1.57.82-1.68.8-1.8.74-1.95.7-2.1.7-2.3.63-2.54.6-2.82.52-3.14.45-3.55.37-4.06.24-4.7.1-5.57-.13-6.74-.44-8.43-.92-11.15-1.67-16.3-3.17-14.3-3.58v-2.06l14.72 3.7 16.22 3.14 11.05 1.67 8.36.9 6.66.44 5.48.13 4.62-.1 3.97-.23 3.46-.35 3.05-.45 2.72-.5 2.46-.58 2.22-.62 2.03-.66 1.87-.7 1.72-.7 1.6-.76 1.5-.78 1.4-.8 1.33-.84 1.26-.87 1.18-.9 1.14-.93 1.08-.97 1.03-1 1-1.07.95-1.1.92-1.16.9-1.23.85-1.28.83-1.37.8-1.45.8-1.56.73-1.67.72-1.8.7-1.96.63-2.12.6-2.33.2-.95zm-268.2-8.26l10.28.68 12.35 1.33 15.5 2.33 21.17 4.1 41.3 9.96 29.9 7.5v2.06l-30.37-7.62-41.26-9.93-21.1-4.1-15.4-2.32-12.26-1.32-10.2-.67-8.7-.2-7.63.14-.03-2 7.65-.14z" fill="#fb8c00"/><path d="M1246.56 1083v2h-1l-.05-2zM1534.9 1090.87l-9.23-.9 6-13.75z" fill="#fb8c00"/><path d="M1536.17 1092l-11.97-1.18 7.8-17.82zm-9.03-2.9l6.5.64-2.27-10.3z" fill="#fb8c00"/><g><use xlink:href="#ac" transform="matrix(1,0,0,1,1393.4996063435246,1102.0691178190866) translate(0 14.4)"/></g><path d="M619 1022.98l-2 .03-1.16-69.16h2zm-4.4-121.4l1.96 30.66h-2l-1.97-30.5-1.9-20.18 2-.2z" fill="#fb8c00"/><path d="M619.02 1024h-2l-.02-1 2-.02zM616.25 880.3l-9.23.86 3.28-14.63z" fill="#fb8c00"/><path d="M617.7 881.17l-11.96 1.12 4.26-19zm-9.4-1.13l6.48-.6-4.18-9.7z" fill="#fb8c00"/><g><use xlink:href="#ad" transform="matrix(1,0,0,1,492.9216936450616,932.2393235498384) translate(0 14.4)"/><use xlink:href="#ae" transform="matrix(1,0,0,1,492.9216936450616,932.2393235498384) translate(83.9 14.4)"/><use xlink:href="#af" transform="matrix(1,0,0,1,492.9216936450616,932.2393235498384) translate(103.9 14.4)"/><use xlink:href="#ag" transform="matrix(1,0,0,1,492.9216936450616,932.2393235498384) translate(141.85000000000002 14.4)"/><use xlink:href="#ah" transform="matrix(1,0,0,1,492.9216936450616,932.2393235498384) translate(188.75000000000003 14.4)"/><use xlink:href="#ai" transform="matrix(1,0,0,1,492.9216936450616,932.2393235498384) translate(207.70000000000002 14.4)"/></g><path d="M194 933.35l10.42 17.24 10.5 15.8 10.55 14.52 10.57 13.35 10.6 12.3 10.64 11.32 10.67 10.44 10.7 9.65 10.78 8.9 10.84 8.23 10.94 7.6 11.06 7.02 11.2 6.46 11.34 5.94 11.54 5.43 11.76 4.94 12.02 4.48 12.3 4 12.66 3.54 13.03 3.05 13.47 2.57 13.95 2.06 14.5 1.52 15.14.95 15.85.33-.03 2-15.9-.33-15.2-.96-14.6-1.52-14.03-2.07-13.55-2.57-13.12-3.08-12.73-3.55-12.4-4.03-12.1-4.5-11.83-4.97-11.6-5.47-11.44-5.97-11.26-6.5-11.12-7.06-11-7.65-10.9-8.28-10.85-8.97-10.77-9.7-10.73-10.5-10.7-11.4-10.65-12.35-10.63-13.42-10.6-14.6-10.54-15.87-10.48-17.3-3.1-5.65h2.28zM103.9 566.3l1.75 42.13 3.42 40.84 4.92 38.98 6.2 36.7 7.26 34.27 8.14 31.7 8.8 29.22 9.34 26.8 9.7 24.56 10 22.47 6.52 13.14h-2.23l-6.1-12.27-10.02-22.55-9.74-24.64-9.35-26.88-8.83-29.3-8.15-31.8-7.3-34.32-6.2-36.8-4.93-39.06-3.45-40.92-1.76-42.2-.04-3.1 2-.04z" fill="#fb8c00"/><path d="M492 1115.02v2l-1.03-.02.04-2zM107.48 562.45l-9.27.1 4.5-14.3z" fill="#fb8c00"/><path d="M108.87 563.44l-12.02.12 5.82-18.56zm-9.3-1.9l6.53-.07-3.37-10z" fill="#fb8c00"/><g><use xlink:href="#aj" transform="matrix(1,0,0,1,47.63505817588785,907.1077612482077) translate(0 14.4)"/><use xlink:href="#ak" transform="matrix(1,0,0,1,47.63505817588785,907.1077612482077) translate(82.85000000000001 14.4)"/><use xlink:href="#al" transform="matrix(1,0,0,1,47.63505817588785,907.1077612482077) translate(121.85000000000001 14.4)"/><use xlink:href="#am" transform="matrix(1,0,0,1,47.63505817588785,907.1077612482077) translate(228.60000000000002 14.4)"/></g><defs><path fill="#438ccb" d="M140-251c81 0 123 46 123 126C263-46 219 4 140 4 59 4 17-45 17-125s42-126 123-126zm0 227c63 0 89-41 89-101s-29-99-89-99c-61 0-89 39-89 99S79-25 140-24" id="an"/><path fill="#438ccb" d="M114-163C36-179 61-72 57 0H25l-1-190h30c1 12-1 29 2 39 6-27 23-49 58-41v29" id="ao"/><path fill="#438ccb" d="M85-194c31 0 48 13 60 33l-1-100h32l1 261h-30c-2-10 0-23-3-31C134-8 116 4 85 4 32 4 16-35 15-94c0-66 23-100 70-100zm9 24c-40 0-46 34-46 75 0 40 6 74 45 74 42 0 51-32 51-76 0-42-9-74-50-73" id="ap"/><path fill="#438ccb" d="M100-194c63 0 86 42 84 106H49c0 40 14 67 53 68 26 1 43-12 49-29l28 8c-11 28-37 45-77 45C44 4 14-33 15-96c1-61 26-98 85-98zm52 81c6-60-76-77-97-28-3 7-6 17-6 28h103" id="aq"/><g id="a"><use transform="matrix(0.1111111111111111,0,0,0.1111111111111111,0,0)" xlink:href="#an"/><use transform="matrix(0.1111111111111111,0,0,0.1111111111111111,31.11111111111111,0)" xlink:href="#ao"/><use transform="matrix(0.1111111111111111,0,0,0.1111111111111111,44.33333333333333,0)" xlink:href="#ap"/><use transform="matrix(0.1111111111111111,0,0,0.1111111111111111,66.55555555555554,0)" xlink:href="#aq"/><use transform="matrix(0.1111111111111111,0,0,0.1111111111111111,88.77777777777777,0)" xlink:href="#ao"/></g><path fill="#438ccb" d="M30-248c87 1 191-15 191 75 0 78-77 80-158 76V0H30v-248zm33 125c57 0 124 11 124-50 0-59-68-47-124-48v98" id="ar"/><path fill="#438ccb" d="M100-194c62-1 85 37 85 99 1 63-27 99-86 99S16-35 15-95c0-66 28-99 85-99zM99-20c44 1 53-31 53-75 0-43-8-75-51-75s-53 32-53 75 10 74 51 75" id="as"/><path fill="#438ccb" d="M96-169c-40 0-48 33-48 73s9 75 48 75c24 0 41-14 43-38l32 2c-6 37-31 61-74 61-59 0-76-41-82-99-10-93 101-131 147-64 4 7 5 14 7 22l-32 3c-4-21-16-35-41-35" id="at"/><path fill="#438ccb" d="M135-143c-3-34-86-38-87 0 15 53 115 12 119 90S17 21 10-45l28-5c4 36 97 45 98 0-10-56-113-15-118-90-4-57 82-63 122-42 12 7 21 19 24 35" id="au"/><g id="b"><use transform="matrix(0.1111111111111111,0,0,0.1111111111111111,0,0)" xlink:href="#ar"/><use transform="matrix(0.1111111111111111,0,0,0.1111111111111111,26.666666666666664,0)" xlink:href="#ao"/><use transform="matrix(0.1111111111111111,0,0,0.1111111111111111,39.888888888888886,0)" xlink:href="#as"/><use transform="matrix(0.1111111111111111,0,0,0.1111111111111111,62.11111111111111,0)" xlink:href="#at"/><use transform="matrix(0.1111111111111111,0,0,0.1111111111111111,82.11111111111111,0)" xlink:href="#aq"/><use transform="matrix(0.1111111111111111,0,0,0.1111111111111111,104.33333333333334,0)" xlink:href="#au"/><use transform="matrix(0.1111111111111111,0,0,0.1111111111111111,124.33333333333336,0)" xlink:href="#au"/></g><path fill="#438ccb" d="M30-248c118-7 216 8 213 122C240-48 200 0 122 0H30v-248zM63-27c89 8 146-16 146-99s-60-101-146-95v194" id="av"/><path fill="#438ccb" d="M63-220v92h138v28H63V0H30v-248h175v28H63" id="aw"/><g id="c"><use transform="matrix(0.1111111111111111,0,0,0.1111111111111111,0,0)" xlink:href="#av"/><use transform="matrix(0.1111111111111111,0,0,0.1111111111111111,28.777777777777775,0)" xlink:href="#aw"/><use transform="matrix(0.1111111111111111,0,0,0.1111111111111111,53.11111111111111,0)" xlink:href="#av"/></g><path fill="#fff" d="M212-179c-10-28-35-45-73-45-59 0-87 40-87 99 0 60 29 101 89 101 43 0 62-24 78-52l27 14C228-24 195 4 139 4 59 4 22-46 18-125c-6-104 99-153 187-111 19 9 31 26 39 46" id="ax"/><path fill="#fff" d="M84 4C-5 8 30-112 23-190h32v120c0 31 7 50 39 49 72-2 45-101 50-169h31l1 190h-30c-1-10 1-25-2-33-11 22-28 36-60 37" id="ay"/><path fill="#fff" d="M135-143c-3-34-86-38-87 0 15 53 115 12 119 90S17 21 10-45l28-5c4 36 97 45 98 0-10-56-113-15-118-90-4-57 82-63 122-42 12 7 21 19 24 35" id="az"/><path fill="#fff" d="M59-47c-2 24 18 29 38 22v24C64 9 27 4 27-40v-127H5v-23h24l9-43h21v43h35v23H59v120" id="aA"/><path fill="#fff" d="M100-194c62-1 85 37 85 99 1 63-27 99-86 99S16-35 15-95c0-66 28-99 85-99zM99-20c44 1 53-31 53-75 0-43-8-75-51-75s-53 32-53 75 10 74 51 75" id="aB"/><path fill="#fff" d="M210-169c-67 3-38 105-44 169h-31v-121c0-29-5-50-35-48C34-165 62-65 56 0H25l-1-190h30c1 10-1 24 2 32 10-44 99-50 107 0 11-21 27-35 58-36 85-2 47 119 55 194h-31v-121c0-29-5-49-35-48" id="aC"/><path fill="#fff" d="M100-194c63 0 86 42 84 106H49c0 40 14 67 53 68 26 1 43-12 49-29l28 8c-11 28-37 45-77 45C44 4 14-33 15-96c1-61 26-98 85-98zm52 81c6-60-76-77-97-28-3 7-6 17-6 28h103" id="aD"/><path fill="#fff" d="M114-163C36-179 61-72 57 0H25l-1-190h30c1 12-1 29 2 39 6-27 23-49 58-41v29" id="aE"/><g id="d"><use transform="matrix(0.07407407407407408,0,0,0.07407407407407408,0,0)" xlink:href="#ax"/><use transform="matrix(0.07407407407407408,0,0,0.07407407407407408,19.185185185185187,0)" xlink:href="#ay"/><use transform="matrix(0.07407407407407408,0,0,0.07407407407407408,34,0)" xlink:href="#az"/><use transform="matrix(0.07407407407407408,0,0,0.07407407407407408,47.33333333333334,0)" xlink:href="#aA"/><use transform="matrix(0.07407407407407408,0,0,0.07407407407407408,54.74074074074075,0)" xlink:href="#aB"/><use transform="matrix(0.07407407407407408,0,0,0.07407407407407408,69.55555555555557,0)" xlink:href="#aC"/><use transform="matrix(0.07407407407407408,0,0,0.07407407407407408,91.70370370370371,0)" xlink:href="#aD"/><use transform="matrix(0.07407407407407408,0,0,0.07407407407407408,106.51851851851853,0)" xlink:href="#aE"/></g><path fill="#fff" d="M30-248c118-7 216 8 213 122C240-48 200 0 122 0H30v-248zM63-27c89 8 146-16 146-99s-60-101-146-95v194" id="aF"/><path fill="#fff" d="M141-36C126-15 110 5 73 4 37 3 15-17 15-53c-1-64 63-63 125-63 3-35-9-54-41-54-24 1-41 7-42 31l-33-3c5-37 33-52 76-52 45 0 72 20 72 64v82c-1 20 7 32 28 27v20c-31 9-61-2-59-35zM48-53c0 20 12 33 32 33 41-3 63-29 60-74-43 2-92-5-92 41" id="aG"/><path fill="#fff" d="M115-194c53 0 69 39 70 98 0 66-23 100-70 100C84 3 66-7 56-30L54 0H23l1-261h32v101c10-23 28-34 59-34zm-8 174c40 0 45-34 45-75 0-40-5-75-45-74-42 0-51 32-51 76 0 43 10 73 51 73" id="aH"/><g id="e"><use transform="matrix(0.07407407407407408,0,0,0.07407407407407408,0,0)" xlink:href="#aF"/><use transform="matrix(0.07407407407407408,0,0,0.07407407407407408,19.185185185185187,0)" xlink:href="#aG"/><use transform="matrix(0.07407407407407408,0,0,0.07407407407407408,34,0)" xlink:href="#aA"/><use transform="matrix(0.07407407407407408,0,0,0.07407407407407408,41.407407407407405,0)" xlink:href="#aG"/><use transform="matrix(0.07407407407407408,0,0,0.07407407407407408,56.22222222222222,0)" xlink:href="#aH"/><use transform="matrix(0.07407407407407408,0,0,0.07407407407407408,71.03703703703704,0)" xlink:href="#aG"/><use transform="matrix(0.07407407407407408,0,0,0.07407407407407408,85.85185185185185,0)" xlink:href="#az"/><use transform="matrix(0.07407407407407408,0,0,0.07407407407407408,99.1851851851852,0)" xlink:href="#aD"/></g><path fill="#fff" d="M137 0h-34L2-248h35l83 218 83-218h36" id="aI"/><path fill="#fff" d="M24-231v-30h32v30H24zM24 0v-190h32V0H24" id="aJ"/><g id="f"><use transform="matrix(0.07407407407407408,0,0,0.07407407407407408,0,0)" xlink:href="#aI"/><use transform="matrix(0.07407407407407408,0,0,0.07407407407407408,17.25925925925926,0)" xlink:href="#aJ"/><use transform="matrix(0.07407407407407408,0,0,0.07407407407407408,23.111111111111114,0)" xlink:href="#az"/><use transform="matrix(0.07407407407407408,0,0,0.07407407407407408,36.44444444444445,0)" xlink:href="#aJ"/><use transform="matrix(0.07407407407407408,0,0,0.07407407407407408,42.296296296296305,0)" xlink:href="#aA"/><use transform="matrix(0.07407407407407408,0,0,0.07407407407407408,49.70370370370371,0)" xlink:href="#az"/></g><path fill="#fff" d="M205 0l-28-72H64L36 0H1l101-248h38L239 0h-34zm-38-99l-47-123c-12 45-31 82-46 123h93" id="aK"/><path fill="#fff" d="M115-194c55 1 70 41 70 98S169 2 115 4C84 4 66-9 55-30l1 105H24l-1-265h31l2 30c10-21 28-34 59-34zm-8 174c40 0 45-34 45-75s-6-73-45-74c-42 0-51 32-51 76 0 43 10 73 51 73" id="aL"/><g id="g"><use transform="matrix(0.07407407407407408,0,0,0.07407407407407408,0,0)" xlink:href="#aK"/><use transform="matrix(0.07407407407407408,0,0,0.07407407407407408,17.77777777777778,0)" xlink:href="#aL"/><use transform="matrix(0.07407407407407408,0,0,0.07407407407407408,32.592592592592595,0)" xlink:href="#aL"/></g><path fill="#fff" d="M234-2c-28 10-62 0-77-18C117 19 8 12 13-65c3-43 29-61 60-76-25-40-17-114 47-108 35 3 59 15 59 50 0 44-40 53-71 69 14 26 32 50 51 72 14-21 24-43 30-72l26 8c-9 33-21 57-38 82 13 13 33 22 57 15v23zM97-151c25-10 52-18 56-48-1-18-13-29-33-29-42 0-39 50-23 77zM42-66c-3 51 71 58 98 28-20-24-41-51-56-80-23 10-40 24-42 52" id="aM"/><use transform="matrix(0.07407407407407408,0,0,0.07407407407407408,0,0)" xlink:href="#aM" id="h"/><path fill="#fff" d="M30 0v-248h187v28H63v79h144v27H63v87h162V0H30" id="aN"/><path fill="#fff" d="M141 0L90-78 38 0H4l68-98-65-92h35l48 74 47-74h35l-64 92 68 98h-35" id="aO"/><path fill="#fff" d="M24 0v-261h32V0H24" id="aP"/><g id="i"><use transform="matrix(0.07407407407407408,0,0,0.07407407407407408,0,0)" xlink:href="#aN"/><use transform="matrix(0.07407407407407408,0,0,0.07407407407407408,17.77777777777778,0)" xlink:href="#aO"/><use transform="matrix(0.07407407407407408,0,0,0.07407407407407408,31.111111111111114,0)" xlink:href="#aL"/><use transform="matrix(0.07407407407407408,0,0,0.07407407407407408,45.92592592592593,0)" xlink:href="#aP"/><use transform="matrix(0.07407407407407408,0,0,0.07407407407407408,51.777777777777786,0)" xlink:href="#aB"/><use transform="matrix(0.07407407407407408,0,0,0.07407407407407408,66.59259259259261,0)" xlink:href="#aE"/><use transform="matrix(0.07407407407407408,0,0,0.07407407407407408,75.40740740740742,0)" xlink:href="#aD"/><use transform="matrix(0.07407407407407408,0,0,0.07407407407407408,90.22222222222223,0)" xlink:href="#az"/></g><path fill="#fff" d="M30-248c87 1 191-15 191 75 0 78-77 80-158 76V0H30v-248zm33 125c57 0 124 11 124-50 0-59-68-47-124-48v98" id="aQ"/><path fill="#fff" d="M85-194c31 0 48 13 60 33l-1-100h32l1 261h-30c-2-10 0-23-3-31C134-8 116 4 85 4 32 4 16-35 15-94c0-66 23-100 70-100zm9 24c-40 0-46 34-46 75 0 40 6 74 45 74 42 0 51-32 51-76 0-42-9-74-50-73" id="aR"/><path fill="#fff" d="M96-169c-40 0-48 33-48 73s9 75 48 75c24 0 41-14 43-38l32 2c-6 37-31 61-74 61-59 0-76-41-82-99-10-93 101-131 147-64 4 7 5 14 7 22l-32 3c-4-21-16-35-41-35" id="aS"/><g id="j"><use transform="matrix(0.07407407407407408,0,0,0.07407407407407408,0,0)" xlink:href="#aQ"/><use transform="matrix(0.07407407407407408,0,0,0.07407407407407408,17.77777777777778,0)" xlink:href="#aE"/><use transform="matrix(0.07407407407407408,0,0,0.07407407407407408,26.592592592592595,0)" xlink:href="#aB"/><use transform="matrix(0.07407407407407408,0,0,0.07407407407407408,41.40740740740741,0)" xlink:href="#aR"/><use transform="matrix(0.07407407407407408,0,0,0.07407407407407408,56.22222222222223,0)" xlink:href="#ay"/><use transform="matrix(0.07407407407407408,0,0,0.07407407407407408,71.03703703703704,0)" xlink:href="#aS"/><use transform="matrix(0.07407407407407408,0,0,0.07407407407407408,84.37037037037038,0)" xlink:href="#aA"/><use transform="matrix(0.07407407407407408,0,0,0.07407407407407408,91.77777777777779,0)" xlink:href="#az"/></g><path d="M143 4C61 4 22-44 18-125c-5-107 100-154 193-111 17 8 29 25 37 43l-32 9c-13-25-37-40-76-40-61 0-88 39-88 99 0 61 29 100 91 101 35 0 62-11 79-27v-45h-74v-28h105v86C228-13 192 4 143 4" id="aT"/><path d="M100-194c63 0 86 42 84 106H49c0 40 14 67 53 68 26 1 43-12 49-29l28 8c-11 28-37 45-77 45C44 4 14-33 15-96c1-61 26-98 85-98zm52 81c6-60-76-77-97-28-3 7-6 17-6 28h103" id="aU"/><path d="M59-47c-2 24 18 29 38 22v24C64 9 27 4 27-40v-127H5v-23h24l9-43h21v43h35v23H59v120" id="aV"/><path d="M24-231v-30h32v30H24zM24 0v-190h32V0H24" id="aW"/><path d="M117-194c89-4 53 116 60 194h-32v-121c0-31-8-49-39-48C34-167 62-67 57 0H25l-1-190h30c1 10-1 24 2 32 11-22 29-35 61-36" id="aX"/><path d="M177-190C167-65 218 103 67 71c-23-6-38-20-44-43l32-5c15 47 100 32 89-28v-30C133-14 115 1 83 1 29 1 15-40 15-95c0-56 16-97 71-98 29-1 48 16 59 35 1-10 0-23 2-32h30zM94-22c36 0 50-32 50-73 0-42-14-75-50-75-39 0-46 34-46 75s6 73 46 73" id="aY"/><g id="k"><use transform="matrix(0.05,0,0,0.05,0,0)" xlink:href="#aT"/><use transform="matrix(0.05,0,0,0.05,14,0)" xlink:href="#aU"/><use transform="matrix(0.05,0,0,0.05,24,0)" xlink:href="#aV"/><use transform="matrix(0.05,0,0,0.05,29,0)" xlink:href="#aV"/><use transform="matrix(0.05,0,0,0.05,34,0)" xlink:href="#aW"/><use transform="matrix(0.05,0,0,0.05,37.95,0)" xlink:href="#aX"/><use transform="matrix(0.05,0,0,0.05,47.95,0)" xlink:href="#aY"/></g><path d="M30-248c87 1 191-15 191 75 0 78-77 80-158 76V0H30v-248zm33 125c57 0 124 11 124-50 0-59-68-47-124-48v98" id="aZ"/><path d="M114-163C36-179 61-72 57 0H25l-1-190h30c1 12-1 29 2 39 6-27 23-49 58-41v29" id="ba"/><path d="M100-194c62-1 85 37 85 99 1 63-27 99-86 99S16-35 15-95c0-66 28-99 85-99zM99-20c44 1 53-31 53-75 0-43-8-75-51-75s-53 32-53 75 10 74 51 75" id="bb"/><path d="M85-194c31 0 48 13 60 33l-1-100h32l1 261h-30c-2-10 0-23-3-31C134-8 116 4 85 4 32 4 16-35 15-94c0-66 23-100 70-100zm9 24c-40 0-46 34-46 75 0 40 6 74 45 74 42 0 51-32 51-76 0-42-9-74-50-73" id="bc"/><path d="M84 4C-5 8 30-112 23-190h32v120c0 31 7 50 39 49 72-2 45-101 50-169h31l1 190h-30c-1-10 1-25-2-33-11 22-28 36-60 37" id="bd"/><path d="M96-169c-40 0-48 33-48 73s9 75 48 75c24 0 41-14 43-38l32 2c-6 37-31 61-74 61-59 0-76-41-82-99-10-93 101-131 147-64 4 7 5 14 7 22l-32 3c-4-21-16-35-41-35" id="be"/><path d="M135-143c-3-34-86-38-87 0 15 53 115 12 119 90S17 21 10-45l28-5c4 36 97 45 98 0-10-56-113-15-118-90-4-57 82-63 122-42 12 7 21 19 24 35" id="bf"/><g id="l"><use transform="matrix(0.05,0,0,0.05,0,0)" xlink:href="#aZ"/><use transform="matrix(0.05,0,0,0.05,12,0)" xlink:href="#ba"/><use transform="matrix(0.05,0,0,0.05,17.95,0)" xlink:href="#bb"/><use transform="matrix(0.05,0,0,0.05,27.950000000000003,0)" xlink:href="#bc"/><use transform="matrix(0.05,0,0,0.05,37.95,0)" xlink:href="#bd"/><use transform="matrix(0.05,0,0,0.05,47.95,0)" xlink:href="#be"/><use transform="matrix(0.05,0,0,0.05,56.95,0)" xlink:href="#aV"/><use transform="matrix(0.05,0,0,0.05,61.95,0)" xlink:href="#bf"/></g><path d="M141-36C126-15 110 5 73 4 37 3 15-17 15-53c-1-64 63-63 125-63 3-35-9-54-41-54-24 1-41 7-42 31l-33-3c5-37 33-52 76-52 45 0 72 20 72 64v82c-1 20 7 32 28 27v20c-31 9-61-2-59-35zM48-53c0 20 12 33 32 33 41-3 63-29 60-74-43 2-92-5-92 41" id="bg"/><g id="m"><use transform="matrix(0.05,0,0,0.05,0,0)" xlink:href="#bg"/><use transform="matrix(0.05,0,0,0.05,10,0)" xlink:href="#aX"/><use transform="matrix(0.05,0,0,0.05,20,0)" xlink:href="#bc"/></g><path d="M30-248c118-7 216 8 213 122C240-48 200 0 122 0H30v-248zM63-27c89 8 146-16 146-99s-60-101-146-95v194" id="bh"/><g id="n"><use transform="matrix(0.05,0,0,0.05,0,0)" xlink:href="#bh"/><use transform="matrix(0.05,0,0,0.05,12.950000000000001,0)" xlink:href="#aU"/><use transform="matrix(0.05,0,0,0.05,22.950000000000003,0)" xlink:href="#aV"/><use transform="matrix(0.05,0,0,0.05,27.950000000000003,0)" xlink:href="#bg"/><use transform="matrix(0.05,0,0,0.05,37.95,0)" xlink:href="#aW"/><use transform="matrix(0.05,0,0,0.05,41.900000000000006,0)" xlink:href="#bf"/></g><g id="o"><use transform="matrix(0.07407407407407408,0,0,0.07407407407407408,0,0)" xlink:href="#aK"/><use transform="matrix(0.07407407407407408,0,0,0.07407407407407408,17.77777777777778,0)" xlink:href="#aR"/><use transform="matrix(0.07407407407407408,0,0,0.07407407407407408,32.592592592592595,0)" xlink:href="#aR"/></g><g id="p"><use transform="matrix(0.07407407407407408,0,0,0.07407407407407408,0,0)" xlink:href="#aA"/><use transform="matrix(0.07407407407407408,0,0,0.07407407407407408,7.407407407407408,0)" xlink:href="#aB"/></g><g id="q"><use transform="matrix(0.07407407407407408,0,0,0.07407407407407408,0,0)" xlink:href="#ax"/><use transform="matrix(0.07407407407407408,0,0,0.07407407407407408,19.185185185185187,0)" xlink:href="#aG"/><use transform="matrix(0.07407407407407408,0,0,0.07407407407407408,34,0)" xlink:href="#aE"/><use transform="matrix(0.07407407407407408,0,0,0.07407407407407408,42.814814814814824,0)" xlink:href="#aA"/></g><path fill="#fff" d="M160-131c35 5 61 23 61 61C221 17 115-2 30 0v-248c76 3 177-17 177 60 0 33-19 50-47 57zm-97-11c50-1 110 9 110-42 0-47-63-36-110-37v79zm0 115c55-2 124 14 124-45 0-56-70-42-124-44v89" id="bi"/><path fill="#fff" d="M179-190L93 31C79 59 56 82 12 73V49c39 6 53-20 64-50L1-190h34L92-34l54-156h33" id="bj"/><g id="r"><use transform="matrix(0.07407407407407408,0,0,0.07407407407407408,0,0)" xlink:href="#bi"/><use transform="matrix(0.07407407407407408,0,0,0.07407407407407408,17.77777777777778,0)" xlink:href="#ay"/><use transform="matrix(0.07407407407407408,0,0,0.07407407407407408,32.592592592592595,0)" xlink:href="#bj"/></g><path fill="#fff" d="M190 0L58-211 59 0H30v-248h39L202-35l-2-213h31V0h-41" id="bk"/><path fill="#fff" d="M206 0h-36l-40-164L89 0H53L-1-190h32L70-26l43-164h34l41 164 42-164h31" id="bl"/><g id="s"><use transform="matrix(0.07407407407407408,0,0,0.07407407407407408,0,0)" xlink:href="#bk"/><use transform="matrix(0.07407407407407408,0,0,0.07407407407407408,19.185185185185187,0)" xlink:href="#aB"/><use transform="matrix(0.07407407407407408,0,0,0.07407407407407408,34,0)" xlink:href="#bl"/></g><path fill="#fff" d="M117-194c89-4 53 116 60 194h-32v-121c0-31-8-49-39-48C34-167 62-67 57 0H25l-1-190h30c1 10-1 24 2 32 11-22 29-35 61-36" id="bm"/><g id="t"><use transform="matrix(0.06790123456790124,0,0,0.06790123456790124,0,0)" xlink:href="#aQ"/><use transform="matrix(0.06790123456790124,0,0,0.06790123456790124,16.296296296296298,0)" xlink:href="#aG"/><use transform="matrix(0.06790123456790124,0,0,0.06790123456790124,29.876543209876544,0)" xlink:href="#bj"/><use transform="matrix(0.06790123456790124,0,0,0.06790123456790124,42.098765432098766,0)" xlink:href="#aC"/><use transform="matrix(0.06790123456790124,0,0,0.06790123456790124,62.40123456790124,0)" xlink:href="#aD"/><use transform="matrix(0.06790123456790124,0,0,0.06790123456790124,75.9814814814815,0)" xlink:href="#bm"/><use transform="matrix(0.06790123456790124,0,0,0.06790123456790124,89.56172839506173,0)" xlink:href="#aA"/></g><g id="u"><use transform="matrix(0.06790123456790124,0,0,0.06790123456790124,0,0)" xlink:href="#aQ"/><use transform="matrix(0.06790123456790124,0,0,0.06790123456790124,16.296296296296298,0)" xlink:href="#aE"/><use transform="matrix(0.06790123456790124,0,0,0.06790123456790124,24.376543209876544,0)" xlink:href="#aB"/><use transform="matrix(0.06790123456790124,0,0,0.06790123456790124,37.95679012345679,0)" xlink:href="#aS"/><use transform="matrix(0.06790123456790124,0,0,0.06790123456790124,50.17901234567901,0)" xlink:href="#aD"/><use transform="matrix(0.06790123456790124,0,0,0.06790123456790124,63.75925925925926,0)" xlink:href="#az"/><use transform="matrix(0.06790123456790124,0,0,0.06790123456790124,75.98148148148148,0)" xlink:href="#az"/></g><g id="v"><use transform="matrix(0.05,0,0,0.05,0,0)" xlink:href="#aZ"/><use transform="matrix(0.05,0,0,0.05,12,0)" xlink:href="#ba"/><use transform="matrix(0.05,0,0,0.05,17.95,0)" xlink:href="#bb"/><use transform="matrix(0.05,0,0,0.05,27.950000000000003,0)" xlink:href="#bc"/><use transform="matrix(0.05,0,0,0.05,37.95,0)" xlink:href="#bd"/><use transform="matrix(0.05,0,0,0.05,47.95,0)" xlink:href="#be"/><use transform="matrix(0.05,0,0,0.05,56.95,0)" xlink:href="#aV"/></g><path d="M185-189c-5-48-123-54-124 2 14 75 158 14 163 119 3 78-121 87-175 55-17-10-28-26-33-46l33-7c5 56 141 63 141-1 0-78-155-14-162-118-5-82 145-84 179-34 5 7 8 16 11 25" id="bn"/><path d="M24 0v-261h32V0H24" id="bo"/><g id="w"><use transform="matrix(0.05,0,0,0.05,0,0)" xlink:href="#bn"/><use transform="matrix(0.05,0,0,0.05,12,0)" xlink:href="#aU"/><use transform="matrix(0.05,0,0,0.05,22,0)" xlink:href="#bo"/><use transform="matrix(0.05,0,0,0.05,25.950000000000003,0)" xlink:href="#aU"/><use transform="matrix(0.05,0,0,0.05,35.95,0)" xlink:href="#be"/><use transform="matrix(0.05,0,0,0.05,44.95,0)" xlink:href="#aV"/><use transform="matrix(0.05,0,0,0.05,49.95,0)" xlink:href="#aW"/><use transform="matrix(0.05,0,0,0.05,53.900000000000006,0)" xlink:href="#bb"/><use transform="matrix(0.05,0,0,0.05,63.900000000000006,0)" xlink:href="#aX"/></g><path d="M30 0v-248h187v28H63v79h144v27H63v87h162V0H30" id="bp"/><path d="M141 0L90-78 38 0H4l68-98-65-92h35l48 74 47-74h35l-64 92 68 98h-35" id="bq"/><path d="M115-194c55 1 70 41 70 98S169 2 115 4C84 4 66-9 55-30l1 105H24l-1-265h31l2 30c10-21 28-34 59-34zm-8 174c40 0 45-34 45-75s-6-73-45-74c-42 0-51 32-51 76 0 43 10 73 51 73" id="br"/><g id="x"><use transform="matrix(0.05,0,0,0.05,0,0)" xlink:href="#bp"/><use transform="matrix(0.05,0,0,0.05,12,0)" xlink:href="#bq"/><use transform="matrix(0.05,0,0,0.05,21,0)" xlink:href="#br"/><use transform="matrix(0.05,0,0,0.05,31,0)" xlink:href="#bo"/><use transform="matrix(0.05,0,0,0.05,34.95,0)" xlink:href="#bb"/><use transform="matrix(0.05,0,0,0.05,44.95,0)" xlink:href="#ba"/><use transform="matrix(0.05,0,0,0.05,50.900000000000006,0)" xlink:href="#aU"/></g><path d="M240 0l2-218c-23 76-54 145-80 218h-23L58-218 59 0H30v-248h44l77 211c21-75 51-140 76-211h43V0h-30" id="bs"/><g id="y"><use transform="matrix(0.05,0,0,0.05,0,0)" xlink:href="#bs"/><use transform="matrix(0.05,0,0,0.05,14.950000000000001,0)" xlink:href="#bb"/><use transform="matrix(0.05,0,0,0.05,24.950000000000003,0)" xlink:href="#ba"/><use transform="matrix(0.05,0,0,0.05,30.900000000000002,0)" xlink:href="#aU"/></g><g id="z"><use transform="matrix(0.05,0,0,0.05,0,0)" xlink:href="#aZ"/><use transform="matrix(0.05,0,0,0.05,12,0)" xlink:href="#ba"/><use transform="matrix(0.05,0,0,0.05,17.95,0)" xlink:href="#bb"/><use transform="matrix(0.05,0,0,0.05,27.950000000000003,0)" xlink:href="#bc"/><use transform="matrix(0.05,0,0,0.05,37.95,0)" xlink:href="#bd"/><use transform="matrix(0.05,0,0,0.05,47.95,0)" xlink:href="#be"/><use transform="matrix(0.05,0,0,0.05,56.95,0)" xlink:href="#aV"/><use transform="matrix(0.05,0,0,0.05,61.95,0)" xlink:href="#bf"/></g><g id="A"><use transform="matrix(0.05,0,0,0.05,0,0)" xlink:href="#ax"/><use transform="matrix(0.05,0,0,0.05,12.950000000000001,0)" xlink:href="#aG"/><use transform="matrix(0.05,0,0,0.05,22.950000000000003,0)" xlink:href="#aE"/><use transform="matrix(0.05,0,0,0.05,28.900000000000002,0)" xlink:href="#aA"/></g><path fill="#fff" d="M177-190C167-65 218 103 67 71c-23-6-38-20-44-43l32-5c15 47 100 32 89-28v-30C133-14 115 1 83 1 29 1 15-40 15-95c0-56 16-97 71-98 29-1 48 16 59 35 1-10 0-23 2-32h30zM94-22c36 0 50-32 50-73 0-42-14-75-50-75-39 0-46 34-46 75s6 73 46 73" id="bt"/><g id="B"><use transform="matrix(0.05,0,0,0.05,0,0)" xlink:href="#aQ"/><use transform="matrix(0.05,0,0,0.05,12,0)" xlink:href="#aG"/><use transform="matrix(0.05,0,0,0.05,22,0)" xlink:href="#bt"/><use transform="matrix(0.05,0,0,0.05,32,0)" xlink:href="#aD"/></g><g id="C"><use transform="matrix(0.07407407407407408,0,0,0.07407407407407408,0,0)" xlink:href="#ax"/><use transform="matrix(0.07407407407407408,0,0,0.07407407407407408,19.185185185185187,0)" xlink:href="#aG"/><use transform="matrix(0.07407407407407408,0,0,0.07407407407407408,34,0)" xlink:href="#aE"/><use transform="matrix(0.07407407407407408,0,0,0.07407407407407408,42.814814814814824,0)" xlink:href="#aA"/></g><g id="D"><use transform="matrix(0.07407407407407408,0,0,0.07407407407407408,0,0)" xlink:href="#aJ"/><use transform="matrix(0.07407407407407408,0,0,0.07407407407407408,5.851851851851853,0)" xlink:href="#aA"/><use transform="matrix(0.07407407407407408,0,0,0.07407407407407408,13.259259259259261,0)" xlink:href="#aD"/><use transform="matrix(0.07407407407407408,0,0,0.07407407407407408,28.074074074074076,0)" xlink:href="#aC"/><use transform="matrix(0.07407407407407408,0,0,0.07407407407407408,50.22222222222223,0)" xlink:href="#az"/></g><path fill="#fff" d="M240 0l2-218c-23 76-54 145-80 218h-23L58-218 59 0H30v-248h44l77 211c21-75 51-140 76-211h43V0h-30" id="bu"/><g id="E"><use transform="matrix(0.06172839506172839,0,0,0.06172839506172839,0,0)" xlink:href="#bu"/><use transform="matrix(0.06172839506172839,0,0,0.06172839506172839,18.456790123456788,0)" xlink:href="#aG"/><use transform="matrix(0.06172839506172839,0,0,0.06172839506172839,30.80246913580247,0)" xlink:href="#bm"/><use transform="matrix(0.06172839506172839,0,0,0.06172839506172839,43.148148148148145,0)" xlink:href="#aG"/><use transform="matrix(0.06172839506172839,0,0,0.06172839506172839,55.49382716049382,0)" xlink:href="#bt"/><use transform="matrix(0.06172839506172839,0,0,0.06172839506172839,67.8395061728395,0)" xlink:href="#aJ"/><use transform="matrix(0.06172839506172839,0,0,0.06172839506172839,72.71604938271605,0)" xlink:href="#bm"/><use transform="matrix(0.06172839506172839,0,0,0.06172839506172839,85.06172839506173,0)" xlink:href="#bt"/></g><path fill="#fff" d="M33 0v-248h34V0H33" id="bv"/><g id="F"><use transform="matrix(0.06172839506172839,0,0,0.06172839506172839,0,0)" xlink:href="#bv"/><use transform="matrix(0.06172839506172839,0,0,0.06172839506172839,6.172839506172839,0)" xlink:href="#aA"/><use transform="matrix(0.06172839506172839,0,0,0.06172839506172839,12.345679012345679,0)" xlink:href="#aD"/><use transform="matrix(0.06172839506172839,0,0,0.06172839506172839,24.691358024691358,0)" xlink:href="#aC"/></g><g id="G"><use transform="matrix(0.06172839506172839,0,0,0.06172839506172839,0,0)" xlink:href="#ax"/><use transform="matrix(0.06172839506172839,0,0,0.06172839506172839,15.987654320987653,0)" xlink:href="#aB"/><use transform="matrix(0.06172839506172839,0,0,0.06172839506172839,28.333333333333332,0)" xlink:href="#ay"/><use transform="matrix(0.06172839506172839,0,0,0.06172839506172839,40.67901234567901,0)" xlink:href="#bm"/><use transform="matrix(0.06172839506172839,0,0,0.06172839506172839,53.02469135802469,0)" xlink:href="#aA"/></g><g id="H"><use transform="matrix(0.06172839506172839,0,0,0.06172839506172839,0,0)" xlink:href="#aB"/><use transform="matrix(0.06172839506172839,0,0,0.06172839506172839,12.345679012345679,0)" xlink:href="#aE"/></g><path fill="#fff" d="M108 0H70L1-190h34L89-25l56-165h34" id="bw"/><g id="I"><use transform="matrix(0.06172839506172839,0,0,0.06172839506172839,0,0)" xlink:href="#aE"/><use transform="matrix(0.06172839506172839,0,0,0.06172839506172839,7.345679012345679,0)" xlink:href="#aD"/><use transform="matrix(0.06172839506172839,0,0,0.06172839506172839,19.691358024691358,0)" xlink:href="#aC"/><use transform="matrix(0.06172839506172839,0,0,0.06172839506172839,38.148148148148145,0)" xlink:href="#aB"/><use transform="matrix(0.06172839506172839,0,0,0.06172839506172839,50.49382716049382,0)" xlink:href="#bw"/><use transform="matrix(0.06172839506172839,0,0,0.06172839506172839,61.60493827160494,0)" xlink:href="#aJ"/><use transform="matrix(0.06172839506172839,0,0,0.06172839506172839,66.48148148148148,0)" xlink:href="#bm"/><use transform="matrix(0.06172839506172839,0,0,0.06172839506172839,78.82716049382717,0)" xlink:href="#bt"/></g><path fill="#fff" d="M101-234c-31-9-42 10-38 44h38v23H63V0H32v-167H5v-23h27c-7-52 17-82 69-68v24" id="bx"/><g id="J"><use transform="matrix(0.07407407407407408,0,0,0.07407407407407408,0,0)" xlink:href="#aF"/><use transform="matrix(0.07407407407407408,0,0,0.07407407407407408,19.185185185185187,0)" xlink:href="#aD"/><use transform="matrix(0.07407407407407408,0,0,0.07407407407407408,34,0)" xlink:href="#bx"/><use transform="matrix(0.07407407407407408,0,0,0.07407407407407408,41.407407407407405,0)" xlink:href="#aG"/><use transform="matrix(0.07407407407407408,0,0,0.07407407407407408,56.22222222222222,0)" xlink:href="#ay"/><use transform="matrix(0.07407407407407408,0,0,0.07407407407407408,71.03703703703704,0)" xlink:href="#aP"/><use transform="matrix(0.07407407407407408,0,0,0.07407407407407408,76.88888888888889,0)" xlink:href="#aA"/></g><g id="K"><use transform="matrix(0.07407407407407408,0,0,0.07407407407407408,0,0)" xlink:href="#aK"/><use transform="matrix(0.07407407407407408,0,0,0.07407407407407408,17.77777777777778,0)" xlink:href="#aR"/><use transform="matrix(0.07407407407407408,0,0,0.07407407407407408,32.592592592592595,0)" xlink:href="#aR"/><use transform="matrix(0.07407407407407408,0,0,0.07407407407407408,47.40740740740741,0)" xlink:href="#aE"/><use transform="matrix(0.07407407407407408,0,0,0.07407407407407408,56.22222222222223,0)" xlink:href="#aD"/><use transform="matrix(0.07407407407407408,0,0,0.07407407407407408,71.03703703703704,0)" xlink:href="#az"/><use transform="matrix(0.07407407407407408,0,0,0.07407407407407408,84.37037037037038,0)" xlink:href="#az"/></g><g id="L"><use transform="matrix(0.07407407407407408,0,0,0.07407407407407408,0,0)" xlink:href="#bx"/><use transform="matrix(0.07407407407407408,0,0,0.07407407407407408,7.407407407407408,0)" xlink:href="#aB"/><use transform="matrix(0.07407407407407408,0,0,0.07407407407407408,22.222222222222225,0)" xlink:href="#aE"/></g><path fill="#fff" d="M185-189c-5-48-123-54-124 2 14 75 158 14 163 119 3 78-121 87-175 55-17-10-28-26-33-46l33-7c5 56 141 63 141-1 0-78-155-14-162-118-5-82 145-84 179-34 5 7 8 16 11 25" id="by"/><path fill="#fff" d="M106-169C34-169 62-67 57 0H25v-261h32l-1 103c12-21 28-36 61-36 89 0 53 116 60 194h-32v-121c2-32-8-49-39-48" id="bz"/><g id="M"><use transform="matrix(0.07407407407407408,0,0,0.07407407407407408,0,0)" xlink:href="#by"/><use transform="matrix(0.07407407407407408,0,0,0.07407407407407408,17.77777777777778,0)" xlink:href="#bz"/><use transform="matrix(0.07407407407407408,0,0,0.07407407407407408,32.592592592592595,0)" xlink:href="#aJ"/><use transform="matrix(0.07407407407407408,0,0,0.07407407407407408,38.44444444444445,0)" xlink:href="#aL"/><use transform="matrix(0.07407407407407408,0,0,0.07407407407407408,53.25925925925927,0)" xlink:href="#aC"/><use transform="matrix(0.07407407407407408,0,0,0.07407407407407408,75.40740740740742,0)" xlink:href="#aD"/><use transform="matrix(0.07407407407407408,0,0,0.07407407407407408,90.22222222222223,0)" xlink:href="#bm"/><use transform="matrix(0.07407407407407408,0,0,0.07407407407407408,105.03703703703704,0)" xlink:href="#aA"/></g><g id="N"><use transform="matrix(0.07407407407407408,0,0,0.07407407407407408,0,0)" xlink:href="#bt"/><use transform="matrix(0.07407407407407408,0,0,0.07407407407407408,14.814814814814817,0)" xlink:href="#aD"/><use transform="matrix(0.07407407407407408,0,0,0.07407407407407408,29.629629629629633,0)" xlink:href="#aA"/><use transform="matrix(0.07407407407407408,0,0,0.07407407407407408,37.03703703703704,0)" xlink:href="#az"/></g><g id="O"><use transform="matrix(0.07407407407407408,0,0,0.07407407407407408,0,0)" xlink:href="#az"/><use transform="matrix(0.07407407407407408,0,0,0.07407407407407408,13.333333333333336,0)" xlink:href="#aD"/><use transform="matrix(0.07407407407407408,0,0,0.07407407407407408,28.148148148148152,0)" xlink:href="#aP"/><use transform="matrix(0.07407407407407408,0,0,0.07407407407407408,34.00000000000001,0)" xlink:href="#aD"/><use transform="matrix(0.07407407407407408,0,0,0.07407407407407408,48.814814814814824,0)" xlink:href="#aS"/><use transform="matrix(0.07407407407407408,0,0,0.07407407407407408,62.14814814814816,0)" xlink:href="#aA"/><use transform="matrix(0.07407407407407408,0,0,0.07407407407407408,69.55555555555557,0)" xlink:href="#aD"/><use transform="matrix(0.07407407407407408,0,0,0.07407407407407408,84.37037037037038,0)" xlink:href="#aR"/></g><g id="P"><use transform="matrix(0.05,0,0,0.05,0,0)" xlink:href="#bs"/><use transform="matrix(0.05,0,0,0.05,14.950000000000001,0)" xlink:href="#bg"/><use transform="matrix(0.05,0,0,0.05,24.950000000000003,0)" xlink:href="#aX"/><use transform="matrix(0.05,0,0,0.05,34.95,0)" xlink:href="#bg"/><use transform="matrix(0.05,0,0,0.05,44.95,0)" xlink:href="#aY"/><use transform="matrix(0.05,0,0,0.05,54.95,0)" xlink:href="#aW"/><use transform="matrix(0.05,0,0,0.05,58.900000000000006,0)" xlink:href="#aX"/><use transform="matrix(0.05,0,0,0.05,68.9,0)" xlink:href="#aY"/></g><path d="M212-179c-10-28-35-45-73-45-59 0-87 40-87 99 0 60 29 101 89 101 43 0 62-24 78-52l27 14C228-24 195 4 139 4 59 4 22-46 18-125c-6-104 99-153 187-111 19 9 31 26 39 46" id="bA"/><g id="Q"><use transform="matrix(0.05,0,0,0.05,0,0)" xlink:href="#bA"/><use transform="matrix(0.05,0,0,0.05,12.950000000000001,0)" xlink:href="#bg"/><use transform="matrix(0.05,0,0,0.05,22.950000000000003,0)" xlink:href="#ba"/><use transform="matrix(0.05,0,0,0.05,28.900000000000002,0)" xlink:href="#aV"/></g><path d="M33 0v-248h34V0H33" id="bB"/><path d="M210-169c-67 3-38 105-44 169h-31v-121c0-29-5-50-35-48C34-165 62-65 56 0H25l-1-190h30c1 10-1 24 2 32 10-44 99-50 107 0 11-21 27-35 58-36 85-2 47 119 55 194h-31v-121c0-29-5-49-35-48" id="bC"/><g id="R"><use transform="matrix(0.05,0,0,0.05,0,0)" xlink:href="#bB"/><use transform="matrix(0.05,0,0,0.05,5,0)" xlink:href="#aV"/><use transform="matrix(0.05,0,0,0.05,10,0)" xlink:href="#aU"/><use transform="matrix(0.05,0,0,0.05,20,0)" xlink:href="#bC"/><use transform="matrix(0.05,0,0,0.05,34.95,0)" xlink:href="#bf"/></g><g id="S"><use transform="matrix(0.05,0,0,0.05,0,0)" xlink:href="#aQ"/><use transform="matrix(0.05,0,0,0.05,12,0)" xlink:href="#aG"/><use transform="matrix(0.05,0,0,0.05,22,0)" xlink:href="#bt"/><use transform="matrix(0.05,0,0,0.05,32,0)" xlink:href="#aD"/></g><path fill="#fff" d="M140-251c81 0 123 46 123 126C263-46 219 4 140 4 59 4 17-45 17-125s42-126 123-126zm0 227c63 0 89-41 89-101s-29-99-89-99c-61 0-89 39-89 99S79-25 140-24" id="bD"/><g id="T"><use transform="matrix(0.07407407407407408,0,0,0.07407407407407408,0,0)" xlink:href="#bD"/><use transform="matrix(0.07407407407407408,0,0,0.07407407407407408,20.740740740740744,0)" xlink:href="#aE"/><use transform="matrix(0.07407407407407408,0,0,0.07407407407407408,29.55555555555556,0)" xlink:href="#aR"/><use transform="matrix(0.07407407407407408,0,0,0.07407407407407408,44.37037037037039,0)" xlink:href="#aD"/><use transform="matrix(0.07407407407407408,0,0,0.07407407407407408,59.185185185185205,0)" xlink:href="#aE"/></g><g id="U"><use transform="matrix(0.07407407407407408,0,0,0.07407407407407408,0,0)" xlink:href="#ax"/><use transform="matrix(0.07407407407407408,0,0,0.07407407407407408,19.185185185185187,0)" xlink:href="#aB"/><use transform="matrix(0.07407407407407408,0,0,0.07407407407407408,34,0)" xlink:href="#bm"/><use transform="matrix(0.07407407407407408,0,0,0.07407407407407408,48.81481481481481,0)" xlink:href="#bx"/><use transform="matrix(0.07407407407407408,0,0,0.07407407407407408,56.22222222222223,0)" xlink:href="#aJ"/><use transform="matrix(0.07407407407407408,0,0,0.07407407407407408,62.07407407407408,0)" xlink:href="#aE"/><use transform="matrix(0.07407407407407408,0,0,0.07407407407407408,70.8888888888889,0)" xlink:href="#aC"/><use transform="matrix(0.07407407407407408,0,0,0.07407407407407408,93.03703703703705,0)" xlink:href="#aG"/><use transform="matrix(0.07407407407407408,0,0,0.07407407407407408,107.85185185185188,0)" xlink:href="#aA"/><use transform="matrix(0.07407407407407408,0,0,0.07407407407407408,115.25925925925928,0)" xlink:href="#aJ"/><use transform="matrix(0.07407407407407408,0,0,0.07407407407407408,121.11111111111113,0)" xlink:href="#aB"/><use transform="matrix(0.07407407407407408,0,0,0.07407407407407408,135.92592592592595,0)" xlink:href="#bm"/></g><g id="V"><use transform="matrix(0.07407407407407408,0,0,0.07407407407407408,0,0)" xlink:href="#aG"/><use transform="matrix(0.07407407407407408,0,0,0.07407407407407408,14.814814814814817,0)" xlink:href="#bm"/><use transform="matrix(0.07407407407407408,0,0,0.07407407407407408,29.629629629629633,0)" xlink:href="#aR"/></g><g id="W"><use transform="matrix(0.07407407407407408,0,0,0.07407407407407408,0,0)" xlink:href="#bv"/><use transform="matrix(0.07407407407407408,0,0,0.07407407407407408,7.407407407407408,0)" xlink:href="#bm"/><use transform="matrix(0.07407407407407408,0,0,0.07407407407407408,22.222222222222225,0)" xlink:href="#bw"/><use transform="matrix(0.07407407407407408,0,0,0.07407407407407408,35.55555555555556,0)" xlink:href="#aB"/><use transform="matrix(0.07407407407407408,0,0,0.07407407407407408,50.370370370370374,0)" xlink:href="#aJ"/><use transform="matrix(0.07407407407407408,0,0,0.07407407407407408,56.22222222222223,0)" xlink:href="#aS"/><use transform="matrix(0.07407407407407408,0,0,0.07407407407407408,69.55555555555557,0)" xlink:href="#aD"/></g><path fill="#fff" d="M143 4C61 4 22-44 18-125c-5-107 100-154 193-111 17 8 29 25 37 43l-32 9c-13-25-37-40-76-40-61 0-88 39-88 99 0 61 29 100 91 101 35 0 62-11 79-27v-45h-74v-28h105v86C228-13 192 4 143 4" id="bE"/><g id="X"><use transform="matrix(0.07407407407407408,0,0,0.07407407407407408,0,0)" xlink:href="#bE"/><use transform="matrix(0.07407407407407408,0,0,0.07407407407407408,20.740740740740744,0)" xlink:href="#aD"/><use transform="matrix(0.07407407407407408,0,0,0.07407407407407408,35.55555555555556,0)" xlink:href="#bm"/><use transform="matrix(0.07407407407407408,0,0,0.07407407407407408,50.370370370370374,0)" xlink:href="#aD"/><use transform="matrix(0.07407407407407408,0,0,0.07407407407407408,65.18518518518519,0)" xlink:href="#aE"/><use transform="matrix(0.07407407407407408,0,0,0.07407407407407408,74,0)" xlink:href="#aG"/><use transform="matrix(0.07407407407407408,0,0,0.07407407407407408,88.81481481481481,0)" xlink:href="#aA"/><use transform="matrix(0.07407407407407408,0,0,0.07407407407407408,96.22222222222221,0)" xlink:href="#aJ"/><use transform="matrix(0.07407407407407408,0,0,0.07407407407407408,102.07407407407405,0)" xlink:href="#aB"/><use transform="matrix(0.07407407407407408,0,0,0.07407407407407408,116.88888888888889,0)" xlink:href="#bm"/></g><g id="Y"><use transform="matrix(0.05555555555555555,0,0,0.05555555555555555,0,0)" xlink:href="#bv"/><use transform="matrix(0.05555555555555555,0,0,0.05555555555555555,5.555555555555555,0)" xlink:href="#bx"/></g><g id="Z"><use transform="matrix(0.05555555555555555,0,0,0.05555555555555555,0,0)" xlink:href="#aQ"/><use transform="matrix(0.05555555555555555,0,0,0.05555555555555555,13.333333333333332,0)" xlink:href="#aG"/><use transform="matrix(0.05555555555555555,0,0,0.05555555555555555,24.444444444444443,0)" xlink:href="#bj"/><use transform="matrix(0.05555555555555555,0,0,0.05555555555555555,34.44444444444444,0)" xlink:href="#aC"/><use transform="matrix(0.05555555555555555,0,0,0.05555555555555555,51.05555555555556,0)" xlink:href="#aD"/><use transform="matrix(0.05555555555555555,0,0,0.05555555555555555,62.16666666666668,0)" xlink:href="#bm"/><use transform="matrix(0.05555555555555555,0,0,0.05555555555555555,73.27777777777779,0)" xlink:href="#aA"/></g><g id="aa"><use transform="matrix(0.05555555555555555,0,0,0.05555555555555555,0,0)" xlink:href="#by"/><use transform="matrix(0.05555555555555555,0,0,0.05555555555555555,13.333333333333332,0)" xlink:href="#ay"/><use transform="matrix(0.05555555555555555,0,0,0.05555555555555555,24.444444444444443,0)" xlink:href="#aS"/><use transform="matrix(0.05555555555555555,0,0,0.05555555555555555,34.44444444444444,0)" xlink:href="#aD"/><use transform="matrix(0.05555555555555555,0,0,0.05555555555555555,45.55555555555556,0)" xlink:href="#az"/><use transform="matrix(0.05555555555555555,0,0,0.05555555555555555,55.55555555555556,0)" xlink:href="#az"/><use transform="matrix(0.05555555555555555,0,0,0.05555555555555555,65.55555555555556,0)" xlink:href="#bx"/><use transform="matrix(0.05555555555555555,0,0,0.05555555555555555,71.11111111111111,0)" xlink:href="#ay"/><use transform="matrix(0.05555555555555555,0,0,0.05555555555555555,82.22222222222223,0)" xlink:href="#aP"/><use transform="matrix(0.05555555555555555,0,0,0.05555555555555555,86.61111111111111,0)" xlink:href="#aP"/></g><path d="M137-103V0h-34v-103L8-248h37l75 118 75-118h37" id="bF"/><g id="ab"><use transform="matrix(0.05,0,0,0.05,0,0)" xlink:href="#bF"/><use transform="matrix(0.05,0,0,0.05,10.35,0)" xlink:href="#aU"/><use transform="matrix(0.05,0,0,0.05,20.35,0)" xlink:href="#bf"/></g><path d="M190 0L58-211 59 0H30v-248h39L202-35l-2-213h31V0h-41" id="bG"/><g id="ac"><use transform="matrix(0.05,0,0,0.05,0,0)" xlink:href="#bG"/><use transform="matrix(0.05,0,0,0.05,12.950000000000001,0)" xlink:href="#bb"/></g><g id="ad"><use transform="matrix(0.05,0,0,0.05,0,0)" xlink:href="#aT"/><use transform="matrix(0.05,0,0,0.05,14,0)" xlink:href="#aU"/><use transform="matrix(0.05,0,0,0.05,24,0)" xlink:href="#aX"/><use transform="matrix(0.05,0,0,0.05,34,0)" xlink:href="#aU"/><use transform="matrix(0.05,0,0,0.05,44,0)" xlink:href="#ba"/><use transform="matrix(0.05,0,0,0.05,49.95,0)" xlink:href="#aV"/><use transform="matrix(0.05,0,0,0.05,54.95,0)" xlink:href="#aW"/><use transform="matrix(0.05,0,0,0.05,58.900000000000006,0)" xlink:href="#bb"/><use transform="matrix(0.05,0,0,0.05,68.9,0)" xlink:href="#aX"/></g><path d="M101-234c-31-9-42 10-38 44h38v23H63V0H32v-167H5v-23h27c-7-52 17-82 69-68v24" id="bH"/><g id="ae"><use transform="matrix(0.05,0,0,0.05,0,0)" xlink:href="#bb"/><use transform="matrix(0.05,0,0,0.05,10,0)" xlink:href="#bH"/></g><path d="M206 0h-36l-40-164L89 0H53L-1-190h32L70-26l43-164h34l41 164 42-164h31" id="bI"/><g id="af"><use transform="matrix(0.05,0,0,0.05,0,0)" xlink:href="#aX"/><use transform="matrix(0.05,0,0,0.05,10,0)" xlink:href="#aU"/><use transform="matrix(0.05,0,0,0.05,20,0)" xlink:href="#bI"/></g><g id="ag"><use transform="matrix(0.05,0,0,0.05,0,0)" xlink:href="#bb"/><use transform="matrix(0.05,0,0,0.05,10,0)" xlink:href="#ba"/><use transform="matrix(0.05,0,0,0.05,15.949999999999998,0)" xlink:href="#bc"/><use transform="matrix(0.05,0,0,0.05,25.950000000000003,0)" xlink:href="#aU"/><use transform="matrix(0.05,0,0,0.05,35.95,0)" xlink:href="#ba"/></g><g id="ah"><use transform="matrix(0.05,0,0,0.05,0,0)" xlink:href="#aW"/><use transform="matrix(0.05,0,0,0.05,3.95,0)" xlink:href="#aX"/></g><path d="M115-194c53 0 69 39 70 98 0 66-23 100-70 100C84 3 66-7 56-30L54 0H23l1-261h32v101c10-23 28-34 59-34zm-8 174c40 0 45-34 45-75 0-40-5-75-45-74-42 0-51 32-51 76 0 43 10 73 51 73" id="bJ"/><g id="ai"><use transform="matrix(0.05,0,0,0.05,0,0)" xlink:href="#aV"/><use transform="matrix(0.05,0,0,0.05,5,0)" xlink:href="#bg"/><use transform="matrix(0.05,0,0,0.05,15,0)" xlink:href="#bJ"/><use transform="matrix(0.05,0,0,0.05,25,0)" xlink:href="#bo"/><use transform="matrix(0.05,0,0,0.05,28.950000000000003,0)" xlink:href="#aU"/></g><g id="aj"><use transform="matrix(0.05,0,0,0.05,0,0)" xlink:href="#bA"/><use transform="matrix(0.05,0,0,0.05,12.950000000000001,0)" xlink:href="#bd"/><use transform="matrix(0.05,0,0,0.05,22.950000000000003,0)" xlink:href="#bf"/><use transform="matrix(0.05,0,0,0.05,31.950000000000003,0)" xlink:href="#aV"/><use transform="matrix(0.05,0,0,0.05,36.95,0)" xlink:href="#bb"/><use transform="matrix(0.05,0,0,0.05,46.95,0)" xlink:href="#bC"/><use transform="matrix(0.05,0,0,0.05,61.900000000000006,0)" xlink:href="#aU"/><use transform="matrix(0.05,0,0,0.05,71.9,0)" xlink:href="#ba"/></g><g id="ak"><use transform="matrix(0.05,0,0,0.05,0,0)" xlink:href="#aY"/><use transform="matrix(0.05,0,0,0.05,10,0)" xlink:href="#aU"/><use transform="matrix(0.05,0,0,0.05,20,0)" xlink:href="#aV"/><use transform="matrix(0.05,0,0,0.05,25,0)" xlink:href="#bf"/></g><g id="al"><use transform="matrix(0.05,0,0,0.05,0,0)" xlink:href="#bA"/><use transform="matrix(0.05,0,0,0.05,12.950000000000001,0)" xlink:href="#bb"/><use transform="matrix(0.05,0,0,0.05,22.950000000000003,0)" xlink:href="#aX"/><use transform="matrix(0.05,0,0,0.05,32.95,0)" xlink:href="#bH"/><use transform="matrix(0.05,0,0,0.05,37.95,0)" xlink:href="#aW"/><use transform="matrix(0.05,0,0,0.05,41.900000000000006,0)" xlink:href="#ba"/><use transform="matrix(0.05,0,0,0.05,47.85000000000001,0)" xlink:href="#bC"/><use transform="matrix(0.05,0,0,0.05,62.80000000000001,0)" xlink:href="#bg"/><use transform="matrix(0.05,0,0,0.05,72.80000000000001,0)" xlink:href="#aV"/><use transform="matrix(0.05,0,0,0.05,77.80000000000001,0)" xlink:href="#aW"/><use transform="matrix(0.05,0,0,0.05,81.75000000000001,0)" xlink:href="#bb"/><use transform="matrix(0.05,0,0,0.05,91.75000000000001,0)" xlink:href="#aX"/></g><g id="am"><use transform="matrix(0.05,0,0,0.05,0,0)" xlink:href="#bp"/><use transform="matrix(0.05,0,0,0.05,12,0)" xlink:href="#bC"/><use transform="matrix(0.05,0,0,0.05,26.950000000000003,0)" xlink:href="#bg"/><use transform="matrix(0.05,0,0,0.05,36.95,0)" xlink:href="#aW"/><use transform="matrix(0.05,0,0,0.05,40.900000000000006,0)" xlink:href="#bo"/></g></defs></g></svg>